<svg width="546" height="359" viewBox="0 0 546 359" fill="none" xmlns="http://www.w3.org/2000/svg">
<path opacity="0.5" d="M88.0256 188.125L45.2632 163.433C44.5336 163.003 44.6272 162.273 45.469 161.787L87.8198 137.338C88.6616 136.851 89.9336 136.795 90.6818 137.226L133.444 161.918C134.174 162.348 134.08 163.078 133.238 163.564L90.8876 188.013C90.0271 188.481 88.7551 188.537 88.0256 188.125Z" fill="#338ECC"/>
<path d="M89.2223 200.771C88.4553 200.771 87.7258 200.622 87.1646 200.285L24.6298 164.182C24.0125 163.827 23.6758 163.303 23.6758 162.723C23.6758 162.068 24.1247 161.413 24.9291 160.965L86.8653 125.198C88.2496 124.394 90.2886 124.319 91.5045 125.03L154.039 161.133C154.657 161.488 154.993 162.012 154.993 162.592C154.993 163.247 154.544 163.901 153.74 164.35L91.8037 200.117C91.0742 200.566 90.1202 200.771 89.2223 200.771ZM87.651 199.499C88.5676 200.042 90.2698 199.948 91.3548 199.331L153.291 163.565C153.777 163.284 154.077 162.929 154.077 162.611C154.077 162.311 153.815 162.106 153.59 161.975L91.0555 125.853C90.1389 125.311 88.4366 125.404 87.3517 126.021L25.3967 161.788C24.9104 162.068 24.6111 162.424 24.6111 162.742C24.6111 163.041 24.873 163.247 25.0975 163.378L87.651 199.499Z" fill="#A5E3FD"/>
<path d="M133.912 145.175V136.926H120.481L90.6824 119.716C89.9528 119.286 88.6808 119.342 87.8203 119.829L58.1523 136.963H44.7773V145.232C44.796 145.493 44.9457 145.737 45.2637 145.924L88.0261 170.616C88.7556 171.046 90.0276 170.99 90.8881 170.504L133.239 146.055C133.65 145.811 133.894 145.493 133.912 145.175Z" fill="url(#paint0_linear_196_2553)"/>
<path d="M88.0256 162.385L45.2632 137.693C44.5336 137.263 44.6272 136.533 45.469 136.047L87.8198 111.598C88.6616 111.112 89.9336 111.056 90.6818 111.486L133.444 136.178C134.174 136.608 134.08 137.338 133.238 137.824L90.8876 162.273C90.0271 162.76 88.7551 162.797 88.0256 162.385Z" fill="url(#paint1_linear_196_2553)"/>
<path d="M88.1764 159.486L50.2777 137.6C49.623 137.226 49.7165 136.571 50.4647 136.141L87.9894 114.479C88.7376 114.049 89.8787 113.993 90.5147 114.367L128.413 136.253C129.068 136.627 128.975 137.282 128.226 137.712L90.7018 159.374C89.9535 159.823 88.8312 159.86 88.1764 159.486Z" fill="#338ECC"/>
<path d="M88.2691 157.652L53.4569 137.562C52.8583 137.225 52.9331 136.627 53.6252 136.215L88.1008 116.312C88.7929 115.919 89.8217 115.863 90.4203 116.218L125.233 136.327C125.831 136.664 125.756 137.263 125.064 137.674L90.5887 157.577C89.8965 157.952 88.8677 158.008 88.2691 157.652Z" fill="#338ECC"/>
<path opacity="0.5" d="M478.029 235.939L435.267 211.246C434.538 210.816 434.631 210.087 435.473 209.6L477.824 185.151C478.665 184.665 479.937 184.609 480.686 185.039L523.448 209.731C524.178 210.161 524.084 210.891 523.242 211.377L480.892 235.826C480.05 236.313 478.759 236.369 478.029 235.939Z" fill="#338ECC"/>
<path d="M479.245 247.032C478.516 247.032 477.805 246.882 477.262 246.564L417.346 211.957C416.748 211.621 416.43 211.116 416.43 210.555C416.43 209.919 416.879 209.282 417.646 208.852L477 174.583C478.328 173.816 480.293 173.741 481.471 174.414L541.387 209.021C541.986 209.357 542.304 209.862 542.304 210.424C542.304 211.06 541.855 211.696 541.088 212.126L481.733 246.396C481.003 246.807 480.106 247.032 479.245 247.032ZM479.488 174.882C478.777 174.882 478.029 175.05 477.449 175.387L418.095 209.657C417.627 209.919 417.346 210.255 417.346 210.555C417.346 210.835 417.589 211.041 417.795 211.153L477.711 245.76C478.59 246.265 480.218 246.19 481.247 245.591L540.601 211.321C541.069 211.06 541.35 210.723 541.35 210.424C541.35 210.143 541.106 209.937 540.901 209.825L480.985 175.237C480.592 174.994 480.049 174.882 479.488 174.882Z" fill="#A5E3FD"/>
<path d="M523.916 194.111V185.862H510.485L480.686 168.652C479.957 168.222 478.685 168.278 477.824 168.765L448.156 185.899H434.781V194.168C434.8 194.429 434.95 194.673 435.268 194.86L478.03 219.552C478.76 219.982 480.032 219.926 480.892 219.44L523.243 194.991C523.673 194.747 523.898 194.429 523.916 194.111Z" fill="url(#paint2_linear_196_2553)"/>
<path d="M478.029 211.321L435.267 186.629C434.538 186.199 434.631 185.469 435.473 184.983L477.824 160.534C478.665 160.048 479.937 159.992 480.686 160.422L523.448 185.114C524.178 185.544 524.084 186.274 523.242 186.76L480.892 211.209C480.05 211.677 478.759 211.733 478.029 211.321Z" fill="url(#paint3_linear_196_2553)"/>
<path d="M478.029 211.321L435.267 186.629C434.538 186.199 434.631 185.469 435.473 184.983L477.824 160.534C478.665 160.048 479.937 159.992 480.686 160.422L523.448 185.114C524.178 185.544 524.084 186.274 523.242 186.76L480.892 211.209C480.05 211.677 478.759 211.733 478.029 211.321Z" fill="url(#paint4_linear_196_2553)"/>
<path d="M478.18 208.422L440.282 186.536C439.627 186.162 439.72 185.507 440.469 185.077L477.993 163.415C478.741 162.985 479.883 162.929 480.519 163.303L518.417 185.189C519.072 185.563 518.979 186.218 518.23 186.648L480.706 208.31C479.957 208.759 478.835 208.796 478.18 208.422Z" fill="#338ECC"/>
<path d="M478.273 206.589L443.461 186.48C442.862 186.143 442.937 185.544 443.629 185.133L478.105 165.229C478.797 164.836 479.826 164.78 480.424 165.136L515.236 185.245C515.835 185.582 515.76 186.18 515.068 186.592L480.593 206.495C479.919 206.888 478.872 206.944 478.273 206.589Z" fill="#338ECC"/>
<path d="M478.553 184.553L474.475 182.214L476.701 180.924L480.779 183.281L478.553 184.553Z" fill="#A5E3FD"/>
<path d="M486.128 184.216L482.05 186.573L479.824 185.301L483.902 182.944L486.128 184.216Z" fill="#A5E3FD"/>
<path d="M477.636 185.095L475.41 186.367L473.184 185.095L475.41 183.805L477.636 185.095Z" fill="#A5E3FD"/>
<path d="M485.305 189.529L483.098 190.82L476.682 187.116L478.908 185.825L485.305 189.529Z" fill="#A5E3FD"/>
<path opacity="0.4" d="M523.935 174.788L505.753 174.9L480.686 160.44C479.957 160.01 478.685 160.066 477.824 160.552L452.421 175.218L434.781 175.33V186.049H434.8C434.837 186.273 434.987 186.479 435.286 186.648L478.049 211.34C478.778 211.77 480.05 211.714 480.911 211.227L523.262 186.779C523.654 186.554 523.86 186.273 523.935 186.012L523.954 185.993V174.788H523.935Z" fill="#A5E3FD"/>
<path d="M523.916 175.835V167.586H510.485L480.686 150.376C479.957 149.946 478.685 150.002 477.824 150.488L448.156 167.623H434.781V175.891C434.8 176.153 434.95 176.396 435.268 176.583L478.03 201.276C478.76 201.706 480.032 201.65 480.892 201.163L523.243 176.714C523.673 176.471 523.898 176.153 523.916 175.835Z" fill="url(#paint5_linear_196_2553)"/>
<path d="M478.029 193.045L435.267 168.353C434.538 167.923 434.631 167.193 435.473 166.707L477.824 142.258C478.665 141.771 479.937 141.715 480.686 142.145L523.448 166.838C524.178 167.268 524.084 167.997 523.242 168.484L480.892 192.933C480.05 193.4 478.759 193.457 478.029 193.045Z" fill="url(#paint6_linear_196_2553)"/>
<path d="M478.18 190.146L440.282 168.26C439.627 167.886 439.72 167.231 440.469 166.801L477.993 145.139C478.741 144.709 479.883 144.653 480.519 145.027L518.417 166.913C519.072 167.287 518.979 167.942 518.23 168.372L480.706 190.034C479.957 190.483 478.835 190.52 478.18 190.146Z" fill="#338ECC"/>
<path d="M478.273 188.312L443.461 168.203C442.862 167.866 442.937 167.268 443.629 166.856L478.105 146.953C478.797 146.56 479.826 146.504 480.424 146.859L515.236 166.969C515.835 167.305 515.76 167.904 515.068 168.315L480.593 188.219C479.919 188.612 478.872 188.668 478.273 188.312Z" fill="#338ECC"/>
<path d="M386.071 344.454C385.397 344.454 384.705 344.285 384.106 343.93L349.014 323.671L349.481 322.867L384.574 343.126C385.491 343.668 386.651 343.668 387.567 343.126L544.344 252.606C544.568 252.475 544.699 252.251 544.699 252.008C544.699 251.765 544.568 251.521 544.344 251.409L508.465 230.701L508.933 229.897L544.811 250.605C545.316 250.904 545.635 251.428 545.635 252.008C545.635 252.606 545.335 253.13 544.811 253.411L388.035 343.93C387.417 344.285 386.744 344.454 386.071 344.454Z" fill="#A5E3FD"/>
<path d="M89.3523 267.421C88.4918 267.421 87.6126 267.196 86.8457 266.747L1.48931 217.512C1.02165 217.251 0.759766 216.764 0.759766 216.24C0.759766 215.717 1.04036 215.23 1.48931 214.968L57.7388 182.494L58.2065 183.299L1.95696 215.773C1.71378 215.904 1.69508 216.147 1.69508 216.24C1.69508 216.334 1.71378 216.558 1.95696 216.708L87.3133 265.943C88.5667 266.672 90.138 266.672 91.3913 265.943L108.62 256.01L109.087 256.814L91.8589 266.747C91.0733 267.196 90.2128 267.421 89.3523 267.421Z" fill="#A5E3FD"/>
<path d="M215.658 140.78L238.835 3.23298L236.965 2.44732L239.77 0.838583V0.857294C240.313 0.501876 241.08 0.520578 241.922 1.00694L427.207 107.969C428.722 108.848 429.882 111.093 429.62 112.683L406.256 251.315C406.125 252.044 405.769 252.512 405.283 252.718L402.533 254.308L402.065 251.745L402.215 251.801L218.071 145.494C216.556 144.614 215.396 142.37 215.658 140.78Z" fill="url(#paint7_linear_196_2553)"/>
<path d="M426.179 111.748L429.228 110.401C429.565 111.187 429.733 112.01 429.621 112.702L406.257 251.333C406.126 252.063 405.77 252.531 405.284 252.736L402.534 254.326L402.066 251.764L402.216 251.82L392.9 246.432L426.179 111.748Z" fill="url(#paint8_linear_196_2553)"/>
<path d="M215.171 147.159L400.456 254.121C401.878 254.944 403.113 254.476 403.356 252.98L426.72 114.348C426.982 112.777 425.841 110.513 424.307 109.634L239.022 2.67186C237.6 1.84879 236.365 2.31644 236.122 3.81293L212.758 142.445C212.496 144.035 213.637 146.279 215.171 147.159Z" fill="#338ECC"/>
<g opacity="0.51">
<path opacity="0.51" d="M241.453 11.5378L420.041 114.646L397.893 245.216L219.436 142.163L241.453 11.5378Z" fill="#338ECC"/>
</g>
<path d="M286.966 358.614C285.376 358.614 283.711 358.221 282.383 357.454L85.2193 243.571C83.8724 242.785 83.1055 241.719 83.1055 240.652C83.1055 239.736 83.6667 238.894 84.6768 238.314L209.129 166.464C211.262 165.229 214.853 165.379 217.304 166.782L414.467 280.665C415.814 281.451 416.581 282.517 416.581 283.583C416.581 284.5 416.02 285.341 415.01 285.921L290.557 357.772C289.566 358.352 288.294 358.614 286.966 358.614ZM212.683 166.576C211.505 166.576 210.401 166.819 209.559 167.287L85.107 239.137C84.3775 239.549 84.0034 240.072 84.0034 240.671C84.0034 241.401 84.602 242.186 85.6682 242.785L282.832 356.668C284.983 357.903 288.238 358.052 290.071 356.986L414.523 285.136C415.234 284.724 415.627 284.2 415.627 283.602C415.627 282.872 415.028 282.087 413.981 281.488L216.817 167.605C215.62 166.913 214.105 166.576 212.683 166.576Z" fill="#A5E3FD"/>
<path opacity="0.5" d="M100.258 242.018L283.654 347.895C285.656 349.055 288.705 349.186 290.444 348.176L399.876 284.986C401.615 283.976 401.391 282.236 399.389 281.077L215.994 175.2C213.992 174.04 210.943 173.909 209.203 174.919L99.772 238.109C98.0324 239.1 98.2568 240.858 100.258 242.018Z" fill="#C1E6FF"/>
<path d="M98.707 212.799L108.827 218.074L210.215 159.542C211.917 158.57 214.873 158.682 216.837 159.823L391.702 260.78C393.367 259.845 400.999 256.178 400.999 256.178L397.295 265.831L397.277 265.812C397.127 266.242 396.79 266.635 396.248 266.953L289.473 328.609C287.771 329.582 284.815 329.469 282.851 328.328L103.907 225.014C103.103 224.546 102.617 223.985 102.411 223.424H102.392L98.707 212.799Z" fill="url(#paint9_linear_196_2553)"/>
<path d="M100.258 214.464L283.654 320.341C285.656 321.501 288.705 321.632 290.444 320.621L399.876 257.432C401.615 256.422 401.391 254.682 399.389 253.522L215.994 147.645C213.992 146.485 210.943 146.354 209.203 147.365L99.772 210.554C98.0324 211.546 98.2568 213.304 100.258 214.464Z" fill="url(#paint10_linear_196_2553)"/>
<path d="M338.969 297.445V295.424C338.969 295.237 338.857 295.144 338.707 295.237L331.617 299.334C331.468 299.409 331.355 299.633 331.355 299.82V301.841C331.355 302.028 331.468 302.121 331.617 302.028L338.707 297.931C338.857 297.856 338.969 297.632 338.969 297.445Z" fill="#2859CB"/>
<path d="M328.363 303.561V301.54C328.363 301.353 328.251 301.26 328.102 301.353L321.012 305.45C320.862 305.525 320.75 305.749 320.75 305.936V307.957C320.75 308.144 320.862 308.237 321.012 308.144L328.102 304.047C328.251 303.972 328.363 303.748 328.363 303.561Z" fill="#2859CB"/>
<path d="M371.35 251.521L218.951 163.527C217.941 162.947 216.687 162.947 215.659 163.527L161.392 194.916C160.606 195.365 160.606 196.487 161.392 196.936L313.717 284.874C314.727 285.454 315.98 285.454 316.99 284.874L371.332 253.522C372.117 253.092 372.117 251.97 371.35 251.521Z" fill="#ADC8FF"/>
<path d="M371.35 253.541L370.808 253.859L218.951 166.183C217.941 165.603 216.687 165.603 215.659 166.183L161.934 197.272L161.392 196.954C160.606 196.505 160.606 195.383 161.392 194.934L215.659 163.545C216.669 162.965 217.922 162.965 218.951 163.545L371.35 251.539C372.117 251.969 372.117 253.092 371.35 253.541Z" fill="#91AFFF"/>
<path d="M211.561 171.476L343.944 247.91L349.837 244.524L217.453 168.091L211.561 171.476Z" fill="#338ECC"/>
<path d="M197.139 179.82L321.31 251.502L327.184 248.097L203.012 176.415L197.139 179.82Z" fill="#338ECC"/>
<path d="M187.729 185.244L333.936 269.647L339.81 266.242L193.621 181.84L187.729 185.244Z" fill="#338ECC"/>
<path d="M178.338 190.669L324.527 275.071L330.419 271.667L184.23 187.264L178.338 190.669Z" fill="#338ECC"/>
<path d="M168.93 196.094L315.137 280.496L321.011 277.11L174.822 192.689L168.93 196.094Z" fill="#338ECC"/>
<path d="M351.951 252.53L357.825 255.935L363.717 252.53L357.825 249.126L351.951 252.53Z" fill="#338ECC"/>
<path d="M331.188 257.206L343.403 264.259L349.295 260.854L337.061 253.802L331.188 257.206Z" fill="#338ECC"/>
<path d="M213.077 272.809L171.98 249.089C170.371 248.154 170.371 246.657 171.98 245.722L200.077 229.504C201.685 228.568 204.286 228.568 205.894 229.504L246.992 253.223C248.601 254.158 248.601 255.655 246.992 256.59L218.895 272.809C217.286 273.744 214.686 273.744 213.077 272.809Z" fill="url(#paint11_linear_196_2553)"/>
<path d="M246.99 254.607L205.893 230.887C204.284 229.952 201.684 229.952 200.075 230.887L171.978 247.106C171.492 247.386 171.155 247.742 170.968 248.097C170.538 247.293 170.875 246.376 171.978 245.74L200.075 229.522C201.684 228.586 204.284 228.586 205.893 229.522L246.99 253.241C248.094 253.877 248.431 254.794 248 255.598C247.813 255.224 247.495 254.887 246.99 254.607Z" fill="#91AFFF"/>
<g opacity="0.11">
<g opacity="0.11">
<path opacity="0.11" d="M215.807 147.42L399.203 253.298C401.204 254.457 404.253 254.588 405.993 253.578L515.424 190.389C517.164 189.378 516.94 187.639 514.938 186.479L331.542 80.6019C329.541 79.4422 326.492 79.3112 324.752 80.3214L215.321 143.511C213.581 144.502 213.806 146.261 215.807 147.42Z" fill="url(#paint12_linear_196_2553)"/>
<path opacity="0.11" d="M399.744 166.407L358.666 142.688C357.057 141.753 357.057 140.256 358.666 139.321L386.762 123.103C388.371 122.167 390.971 122.167 392.58 123.103L433.677 146.822C435.286 147.757 435.286 149.254 433.677 150.189L405.581 166.407C403.972 167.324 401.353 167.324 399.744 166.407Z" fill="url(#paint13_linear_196_2553)"/>
<path opacity="0.11" d="M433.68 148.188L392.582 124.468C390.973 123.533 388.373 123.533 386.764 124.468L358.668 140.686C358.181 140.967 357.845 141.322 357.658 141.678C357.227 140.873 357.564 139.957 358.668 139.321L386.764 123.103C388.373 122.167 390.973 122.167 392.582 123.103L433.68 146.822C434.783 147.458 435.12 148.375 434.69 149.179C434.484 148.824 434.166 148.487 433.68 148.188Z" fill="#91AFFF"/>
<g opacity="0.11">
<path opacity="0.11" d="M451.729 203.483L299.33 115.489C298.32 114.909 297.066 114.909 296.038 115.489L241.771 146.897C240.985 147.346 240.985 148.468 241.771 148.917L394.095 236.855C395.106 237.435 396.359 237.435 397.369 236.855L451.711 205.503C452.515 205.054 452.515 203.932 451.729 203.483Z" fill="#ADC8FF"/>
<path opacity="0.11" d="M451.729 205.503L451.187 205.821L299.33 118.145C298.32 117.565 297.066 117.565 296.038 118.145L242.313 149.234L241.771 148.916C240.985 148.468 240.985 147.345 241.771 146.896L296.038 115.507C297.048 114.927 298.301 114.927 299.33 115.507L451.729 203.501C452.515 203.931 452.515 205.054 451.729 205.503Z" fill="#91AFFF"/>
<g opacity="0.11">
<path opacity="0.11" d="M255.987 144.746L388.745 221.404L383.488 224.434L250.73 147.795L255.987 144.746Z" fill="#338ECC"/>
<path opacity="0.11" d="M269.98 136.683L396.172 209.525L390.897 212.574L264.705 139.714L269.98 136.683Z" fill="#338ECC"/>
<path opacity="0.11" d="M405.581 214.969L417.366 221.778L412.109 224.808L400.324 217.999L405.581 214.969Z" fill="#338ECC"/>
<path opacity="0.11" d="M395.18 225.107L403.392 229.859L398.117 232.889L389.924 228.157L395.18 225.107Z" fill="#338ECC"/>
<path opacity="0.11" d="M278.733 131.614L426.138 216.709L420.881 219.758L273.477 134.645L278.733 131.614Z" fill="#338ECC"/>
<path opacity="0.11" d="M287.506 126.545L434.911 211.658L429.636 214.688L282.25 129.594L287.506 126.545Z" fill="#338ECC"/>
<path opacity="0.11" d="M296.26 121.494L443.665 206.588L438.409 209.637L291.004 124.524L296.26 121.494Z" fill="#338ECC"/>
</g>
</g>
</g>
</g>
<path opacity="0.42" d="M300.733 243.682L340.241 219.364L251.405 168.09L209.484 196.262L300.733 243.682Z" fill="url(#paint14_radial_196_2553)"/>
<path opacity="0.42" d="M340.242 219.364L349.295 162.198L265.922 114.385V176.358L340.242 219.364Z" fill="url(#paint15_radial_196_2553)"/>
<path opacity="0.5" d="M346.732 91.5073L337.285 86.1386L337.603 84.0996L347.05 89.4683L346.732 91.5073Z" fill="#42FFFF"/>
<path opacity="0.5" d="M351.558 94.2762L348.172 92.3307L348.49 90.2917L351.894 92.2185L351.558 94.2762Z" fill="#42FFFF"/>
<path opacity="0.5" d="M355.316 96.4079L353.016 95.0798L353.334 93.0408L355.634 94.3502L355.316 96.4079Z" fill="#42FFFF"/>
<path opacity="0.5" d="M341.699 93.7335L336.555 90.8153L336.873 88.7764L342.017 91.6945L341.699 93.7335Z" fill="#42FFFF"/>
<path opacity="0.5" d="M349.445 98.1481L343.141 94.5565L343.459 92.5176L349.763 96.0905L349.445 98.1481Z" fill="#42FFFF"/>
<path opacity="0.5" d="M353.186 100.28L350.885 98.9523L351.203 96.9133L353.522 98.2415L353.186 100.28Z" fill="#42FFFF"/>
<path opacity="0.5" d="M356.758 102.301L354.457 100.991L354.775 98.9524L357.095 100.262L356.758 102.301Z" fill="#42FFFF"/>
<path d="M339.547 97.5871L335.824 95.4733L336.142 93.4343L339.865 95.5481L339.547 97.5871Z" fill="#42FFFF"/>
<path d="M342.26 99.1394L340.988 98.4098L341.306 96.3708L342.578 97.1004L342.26 99.1394Z" fill="#42FFFF"/>
<path opacity="0.5" d="M346.002 101.272L343.701 99.9625L344.019 97.9048L346.32 99.2329L346.002 101.272Z" fill="#42FFFF"/>
<path opacity="0.5" d="M348.825 107.95L335.076 100.149L335.413 98.0918L349.143 105.911L348.825 107.95Z" fill="#42FFFF"/>
<path opacity="0.5" d="M353.672 110.7L350.268 108.773L350.586 106.734L353.99 108.661L353.672 110.7Z" fill="#42FFFF"/>
<path opacity="0.5" d="M338.07 106.921L334.348 104.807L334.666 102.768L338.388 104.882L338.07 106.921Z" fill="#42FFFF"/>
<path opacity="0.5" d="M346.805 111.897L339.51 107.744L339.828 105.705L347.123 109.839L346.805 111.897Z" fill="#42FFFF"/>
<path opacity="0.5" d="M350.566 114.03L348.246 112.721L348.564 110.663L350.884 111.991L350.566 114.03Z" fill="#42FFFF"/>
<path opacity="0.5" d="M341.233 113.806L333.619 109.466L333.937 107.427L341.551 111.767L341.233 113.806Z" fill="#42FFFF"/>
<path d="M348.19 117.752L342.672 114.628L342.99 112.589L348.508 115.713L348.19 117.752Z" fill="#42FFFF"/>
<path opacity="0.5" d="M353.353 120.688L349.631 118.575L349.949 116.536L353.671 118.649L353.353 120.688Z" fill="#42FFFF"/>
<path opacity="0.5" d="M335.451 115.601L332.889 114.142L333.207 112.103L335.769 113.562L335.451 115.601Z" fill="#42FFFF"/>
<path opacity="0.5" d="M340.297 118.351L336.893 116.424L337.229 114.385L340.615 116.312L340.297 118.351Z" fill="#42FFFF"/>
<path opacity="0.5" d="M347.217 122.298L341.736 119.174L342.054 117.135L347.535 120.24L347.217 122.298Z" fill="#42FFFF"/>
<path opacity="0.5" d="M340.034 123.289L332.158 118.799L332.476 116.76L340.352 121.25L340.034 123.289Z" fill="#42FFFF"/>
<path opacity="0.5" d="M348.864 128.302L341.475 124.112L341.793 122.054L349.182 126.263L348.864 128.302Z" fill="#42FFFF"/>
<path d="M352.606 130.435L350.305 129.126L350.623 127.087L352.924 128.396L352.606 130.435Z" fill="#42FFFF"/>
<path opacity="0.5" d="M356.216 132.492L353.896 131.164L354.214 129.125L356.534 130.435L356.216 132.492Z" fill="#42FFFF"/>
<path opacity="0.5" d="M336.143 126.152L331.41 123.477L331.747 121.419L336.461 124.113L336.143 126.152Z" fill="#42FFFF"/>
<path d="M361.752 100.056L368.299 103.779L368.617 101.74L362.07 98.0171L361.752 100.056Z" fill="#42FFFF"/>
<path opacity="0.5" d="M362.406 105.518L367.55 108.436L367.887 106.397L362.743 103.479L362.406 105.518Z" fill="#42FFFF"/>
<path opacity="0.5" d="M363.1 110.999L366.822 113.113L367.14 111.074L363.418 108.96L363.1 110.999Z" fill="#42FFFF"/>
<path opacity="0.5" d="M360.686 114.703L366.092 117.771L366.41 115.732L361.004 112.664L360.686 114.703Z" fill="#42FFFF"/>
<path opacity="0.5" d="M361.641 120.334L365.363 122.447L365.681 120.408L361.959 118.276L361.641 120.334Z" fill="#42FFFF"/>
<path opacity="0.5" d="M359.9 124.43L364.633 127.105L364.951 125.066L360.237 122.373L359.9 124.43Z" fill="#42FFFF"/>
<path opacity="0.5" d="M361.322 130.304L363.904 131.782L364.222 129.724L361.64 128.265L361.322 130.304Z" fill="#42FFFF"/>
<path opacity="0.5" d="M358.18 133.597L363.156 136.44L363.492 134.401L358.498 131.558L358.18 133.597Z" fill="#42FFFF"/>
<path opacity="0.5" d="M357.711 138.423L362.425 141.098L362.743 139.059L358.029 136.384L357.711 138.423Z" fill="#42FFFF"/>
<path opacity="0.5" d="M339.586 128.116L337.584 126.975L337.902 124.936L339.904 126.077L339.586 128.116Z" fill="#42FFFF"/>
<path opacity="0.5" d="M345.552 131.501L341.025 128.938L341.362 126.899L345.87 129.462L345.552 131.501Z" fill="#42FFFF"/>
<path opacity="0.5" d="M383.359 112.252L373.912 106.883L374.23 104.844L383.677 110.213L383.359 112.252Z" fill="#42FFFF"/>
<path opacity="0.5" d="M388.185 115.002L384.799 113.075L385.117 111.036L388.521 112.963L388.185 115.002Z" fill="#42FFFF"/>
<path d="M391.943 117.135L389.643 115.826L389.961 113.787L392.261 115.096L391.943 117.135Z" fill="#42FFFF"/>
<path opacity="0.5" d="M378.326 114.479L373.182 111.561L373.5 109.503L378.644 112.44L378.326 114.479Z" fill="#42FFFF"/>
<path opacity="0.5" d="M386.072 118.874L379.768 115.301L380.086 113.262L386.39 116.835L386.072 118.874Z" fill="#42FFFF"/>
<path d="M389.811 121.026L387.51 119.698L387.828 117.659L390.147 118.968L389.811 121.026Z" fill="#42FFFF"/>
<path opacity="0.5" d="M393.385 123.045L391.084 121.736L391.402 119.697L393.703 121.006L393.385 123.045Z" fill="#42FFFF"/>
<path opacity="0.5" d="M376.156 118.332L372.434 116.218L372.77 114.179L376.493 116.293L376.156 118.332Z" fill="#42FFFF"/>
<path opacity="0.5" d="M378.887 119.885L377.615 119.155L377.933 117.116L379.205 117.827L378.887 119.885Z" fill="#42FFFF"/>
<path opacity="0.5" d="M382.629 122.018L380.328 120.69L380.646 118.651L382.947 119.979L382.629 122.018Z" fill="#42FFFF"/>
<path opacity="0.5" d="M385.452 128.695L371.703 120.876L372.021 118.837L385.77 126.656L385.452 128.695Z" fill="#42FFFF"/>
<path opacity="0.5" d="M390.297 131.445L386.893 129.518L387.211 127.479L390.615 129.406L390.297 131.445Z" fill="#42FFFF"/>
<path opacity="0.5" d="M374.697 127.666L370.975 125.552L371.293 123.513L375.015 125.627L374.697 127.666Z" fill="#42FFFF"/>
<path opacity="0.5" d="M383.432 132.624L376.137 128.49L376.455 126.451L383.75 130.585L383.432 132.624Z" fill="#42FFFF"/>
<path opacity="0.5" d="M387.193 134.775L384.873 133.447L385.191 131.408L387.511 132.717L387.193 134.775Z" fill="#42FFFF"/>
<path d="M377.858 134.55L370.244 130.211L370.562 128.172L378.176 132.511L377.858 134.55Z" fill="#42FFFF"/>
<path opacity="0.5" d="M384.817 138.498L379.299 135.374L379.617 133.316L385.135 136.459L384.817 138.498Z" fill="#42FFFF"/>
<path opacity="0.5" d="M389.98 141.435L386.258 139.321L386.576 137.282L390.298 139.396L389.98 141.435Z" fill="#42FFFF"/>
<path opacity="0.5" d="M372.078 136.346L369.516 134.887L369.834 132.829L372.396 134.307L372.078 136.346Z" fill="#42FFFF"/>
<path opacity="0.5" d="M376.922 139.096L373.518 137.169L373.854 135.112L377.24 137.057L376.922 139.096Z" fill="#42FFFF"/>
<path d="M383.844 143.024L378.363 139.919L378.681 137.88L384.162 140.985L383.844 143.024Z" fill="#42FFFF"/>
<path opacity="0.5" d="M376.66 144.034L368.785 139.545L369.103 137.506L376.978 141.976L376.66 144.034Z" fill="#42FFFF"/>
<path opacity="0.5" d="M385.491 149.047L378.102 144.839L378.42 142.8L385.809 147.008L385.491 149.047Z" fill="#42FFFF"/>
<path opacity="0.5" d="M389.233 151.18L386.932 149.871L387.25 147.813L389.55 149.141L389.233 151.18Z" fill="#42FFFF"/>
<path opacity="0.5" d="M392.843 153.219L390.523 151.91L390.841 149.871L393.161 151.18L392.843 153.219Z" fill="#42FFFF"/>
<path opacity="0.5" d="M372.77 146.896L368.037 144.203L368.374 142.164L373.088 144.857L372.77 146.896Z" fill="#42FFFF"/>
<path d="M398.379 120.801L404.926 124.523L405.244 122.484L398.697 118.762L398.379 120.801Z" fill="#42FFFF"/>
<path opacity="0.5" d="M399.033 126.264L404.177 129.182L404.514 127.143L399.37 124.225L399.033 126.264Z" fill="#42FFFF"/>
<path opacity="0.5" d="M399.727 131.744L403.449 133.858L403.767 131.819L400.045 129.687L399.727 131.744Z" fill="#42FFFF"/>
<path opacity="0.5" d="M397.312 135.448L402.719 138.516L403.037 136.477L397.63 133.391L397.312 135.448Z" fill="#42FFFF"/>
<path opacity="0.5" d="M398.266 141.06L401.988 143.192L402.306 141.135L398.584 139.021L398.266 141.06Z" fill="#42FFFF"/>
<path opacity="0.5" d="M396.527 145.156L401.26 147.85L401.578 145.811L396.845 143.117L396.527 145.156Z" fill="#42FFFF"/>
<path opacity="0.5" d="M397.949 151.05L400.531 152.509L400.849 150.47L398.267 149.011L397.949 151.05Z" fill="#42FFFF"/>
<path opacity="0.5" d="M394.807 154.341L399.782 157.185L400.101 155.146L395.125 152.302L394.807 154.341Z" fill="#42FFFF"/>
<path opacity="0.5" d="M394.338 159.167L399.052 161.842L399.37 159.803L394.656 157.109L394.338 159.167Z" fill="#42FFFF"/>
<path d="M376.213 148.86L374.211 147.719L374.529 145.68L376.53 146.821L376.213 148.86Z" fill="#42FFFF"/>
<path opacity="0.5" d="M382.179 152.246L377.652 149.683L377.97 147.626L382.497 150.207L382.179 152.246Z" fill="#42FFFF"/>
<path opacity="0.5" d="M340.128 133.521L330.682 128.153L331 126.114L340.446 131.482L340.128 133.521Z" fill="#42FFFF"/>
<path opacity="0.5" d="M344.973 136.29L341.568 134.345L341.886 132.306L345.291 134.233L344.973 136.29Z" fill="#42FFFF"/>
<path opacity="0.5" d="M348.715 138.423L346.414 137.114L346.732 135.056L349.033 136.384L348.715 138.423Z" fill="#42FFFF"/>
<path opacity="0.5" d="M335.095 135.748L329.951 132.83L330.269 130.791L335.413 133.709L335.095 135.748Z" fill="#42FFFF"/>
<path opacity="0.5" d="M342.839 140.162L336.535 136.571L336.853 134.532L343.157 138.123L342.839 140.162Z" fill="#42FFFF"/>
<path opacity="0.5" d="M346.599 142.295L344.279 140.985L344.597 138.927L346.917 140.256L346.599 142.295Z" fill="#42FFFF"/>
<path opacity="0.5" d="M350.173 144.315L347.854 143.006L348.172 140.967L350.491 142.276L350.173 144.315Z" fill="#42FFFF"/>
<path opacity="0.5" d="M332.945 139.601L329.223 137.487L329.541 135.448L333.263 137.562L332.945 139.601Z" fill="#42FFFF"/>
<path opacity="0.5" d="M335.657 141.154L334.385 140.424L334.703 138.385L335.975 139.115L335.657 141.154Z" fill="#42FFFF"/>
<path opacity="0.5" d="M339.399 143.286L337.098 141.977L337.416 139.938L339.735 141.247L339.399 143.286Z" fill="#42FFFF"/>
<path opacity="0.5" d="M342.223 149.964L328.492 142.164L328.81 140.106L342.541 147.925L342.223 149.964Z" fill="#42FFFF"/>
<path opacity="0.5" d="M347.067 152.733L343.662 150.788L343.98 148.749L347.385 150.675L347.067 152.733Z" fill="#42FFFF"/>
<path opacity="0.5" d="M331.467 148.935L327.744 146.821L328.062 144.782L331.785 146.896L331.467 148.935Z" fill="#42FFFF"/>
<path opacity="0.5" d="M340.202 153.911L332.906 149.758L333.243 147.719L340.52 151.872L340.202 153.911Z" fill="#42FFFF"/>
<path opacity="0.5" d="M343.962 156.044L341.643 154.734L341.979 152.677L344.28 154.005L343.962 156.044Z" fill="#42FFFF"/>
<path opacity="0.5" d="M334.629 155.819L327.016 151.48L327.334 149.441L334.947 153.781L334.629 155.819Z" fill="#42FFFF"/>
<path opacity="0.5" d="M341.587 159.766L336.068 156.642L336.405 154.603L341.905 157.727L341.587 159.766Z" fill="#42FFFF"/>
<path opacity="0.5" d="M346.75 162.703L343.027 160.589L343.345 158.55L347.068 160.664L346.75 162.703Z" fill="#42FFFF"/>
<path opacity="0.5" d="M328.848 157.615L326.285 156.156L326.603 154.117L329.185 155.576L328.848 157.615Z" fill="#42FFFF"/>
<path opacity="0.5" d="M333.692 160.365L330.307 158.438L330.625 156.399L334.01 158.326L333.692 160.365Z" fill="#42FFFF"/>
<path opacity="0.5" d="M340.614 164.312L335.133 161.188L335.47 159.149L340.932 162.254L340.614 164.312Z" fill="#42FFFF"/>
<path opacity="0.5" d="M333.432 165.303L325.557 160.814L325.875 158.775L333.75 163.264L333.432 165.303Z" fill="#42FFFF"/>
<path opacity="0.5" d="M342.26 170.316L334.871 166.126L335.189 164.087L342.578 168.277L342.26 170.316Z" fill="#42FFFF"/>
<path opacity="0.5" d="M346.002 172.449L343.701 171.14L344.019 169.101L346.339 170.41L346.002 172.449Z" fill="#42FFFF"/>
<path opacity="0.5" d="M349.611 174.506L347.291 173.178L347.628 171.139L349.929 172.468L349.611 174.506Z" fill="#42FFFF"/>
<path opacity="0.5" d="M329.54 168.165L324.826 165.49L325.144 163.451L329.858 166.126L329.54 168.165Z" fill="#42FFFF"/>
<path opacity="0.5" d="M355.148 142.07L361.696 145.793L362.014 143.754L355.466 140.031L355.148 142.07Z" fill="#42FFFF"/>
<path opacity="0.5" d="M355.822 147.532L360.966 150.469L361.284 148.411L356.14 145.493L355.822 147.532Z" fill="#42FFFF"/>
<path opacity="0.5" d="M356.496 153.014L360.219 155.127L360.555 153.088L356.833 150.975L356.496 153.014Z" fill="#42FFFF"/>
<path opacity="0.5" d="M354.082 156.717L359.488 159.785L359.806 157.746L354.4 154.678L354.082 156.717Z" fill="#42FFFF"/>
<path opacity="0.5" d="M355.037 162.348L358.76 164.462L359.078 162.423L355.355 160.309L355.037 162.348Z" fill="#42FFFF"/>
<path opacity="0.5" d="M353.314 166.444L358.028 169.119L358.346 167.081L353.632 164.406L353.314 166.444Z" fill="#42FFFF"/>
<path opacity="0.5" d="M354.719 172.318L357.3 173.795L357.618 171.738L355.037 170.279L354.719 172.318Z" fill="#42FFFF"/>
<path opacity="0.5" d="M351.576 175.629L356.571 178.454L356.889 176.415L351.894 173.571L351.576 175.629Z" fill="#42FFFF"/>
<path opacity="0.5" d="M351.107 180.437L355.821 183.112L356.158 181.073L351.425 178.398L351.107 180.437Z" fill="#42FFFF"/>
<path opacity="0.5" d="M332.982 170.13L330.98 168.989L331.298 166.95L333.319 168.091L332.982 170.13Z" fill="#42FFFF"/>
<path opacity="0.5" d="M338.949 173.515L334.422 170.952L334.759 168.913L339.267 171.476L338.949 173.515Z" fill="#42FFFF"/>
<path opacity="0.5" d="M340.558 189.21L332.926 184.87L333.244 182.831L340.876 187.171L340.558 189.21Z" fill="#42FFFF"/>
<path opacity="0.5" d="M345.778 192.184L342.785 190.481L343.103 188.442L346.096 190.145L345.778 192.184Z" fill="#42FFFF"/>
<path opacity="0.5" d="M376.755 154.266L367.309 148.897L367.627 146.858L377.073 152.227L376.755 154.266Z" fill="#42FFFF"/>
<path opacity="0.5" d="M381.6 157.016L378.195 155.09L378.513 153.051L381.918 154.977L381.6 157.016Z" fill="#42FFFF"/>
<path opacity="0.5" d="M385.342 159.168L383.041 157.84L383.359 155.801L385.66 157.11L385.342 159.168Z" fill="#42FFFF"/>
<path opacity="0.5" d="M371.722 156.493L366.578 153.575L366.896 151.517L372.04 154.454L371.722 156.493Z" fill="#42FFFF"/>
<path opacity="0.5" d="M379.466 160.907L373.162 157.315L373.48 155.276L379.784 158.849L379.466 160.907Z" fill="#42FFFF"/>
<path opacity="0.5" d="M383.226 163.04L380.906 161.712L381.224 159.673L383.544 160.982L383.226 163.04Z" fill="#42FFFF"/>
<path opacity="0.5" d="M386.781 165.061L384.48 163.751L384.798 161.712L387.118 163.022L386.781 165.061Z" fill="#42FFFF"/>
<path opacity="0.5" d="M369.572 160.346L365.85 158.233L366.168 156.194L369.89 158.307L369.572 160.346Z" fill="#42FFFF"/>
<path opacity="0.5" d="M372.284 161.898L371.012 161.169L371.33 159.13L372.602 159.859L372.284 161.898Z" fill="#42FFFF"/>
<path opacity="0.5" d="M376.025 164.031L373.725 162.722L374.043 160.664L376.343 161.992L376.025 164.031Z" fill="#42FFFF"/>
<path opacity="0.5" d="M378.849 170.709L365.1 162.89L365.436 160.851L379.167 168.67L378.849 170.709Z" fill="#42FFFF"/>
<path opacity="0.5" d="M383.694 173.459L380.289 171.532L380.607 169.493L384.012 171.42L383.694 173.459Z" fill="#42FFFF"/>
<path opacity="0.5" d="M368.094 169.68L364.371 167.566L364.689 165.527L368.412 167.641L368.094 169.68Z" fill="#42FFFF"/>
<path opacity="0.5" d="M376.829 174.657L369.533 170.504L369.851 168.465L377.147 172.599L376.829 174.657Z" fill="#42FFFF"/>
<path opacity="0.5" d="M380.589 176.789L378.27 175.461L378.588 173.422L380.907 174.75L380.589 176.789Z" fill="#42FFFF"/>
<path opacity="0.5" d="M371.254 176.565L363.641 172.225L363.959 170.186L371.572 174.526L371.254 176.565Z" fill="#42FFFF"/>
<path opacity="0.5" d="M378.214 180.511L372.695 177.387L373.013 175.33L378.532 178.472L378.214 180.511Z" fill="#42FFFF"/>
<path opacity="0.5" d="M383.377 183.448L379.654 181.335L379.972 179.296L383.695 181.409L383.377 183.448Z" fill="#42FFFF"/>
<path opacity="0.5" d="M365.475 178.36L362.912 176.901L363.23 174.862L365.812 176.321L365.475 178.36Z" fill="#42FFFF"/>
<path opacity="0.5" d="M370.319 181.111L366.934 179.184L367.252 177.145L370.637 179.072L370.319 181.111Z" fill="#42FFFF"/>
<path opacity="0.5" d="M377.241 185.038L371.76 181.933L372.078 179.894L377.559 182.999L377.241 185.038Z" fill="#42FFFF"/>
<path opacity="0.5" d="M370.059 186.048L362.184 181.558L362.502 179.519L370.377 183.99L370.059 186.048Z" fill="#42FFFF"/>
<path opacity="0.5" d="M378.887 191.062L371.498 186.871L371.816 184.814L379.205 189.023L378.887 191.062Z" fill="#42FFFF"/>
<path opacity="0.5" d="M382.629 193.194L380.328 191.884L380.646 189.845L382.947 191.155L382.629 193.194Z" fill="#42FFFF"/>
<path opacity="0.5" d="M386.238 195.252L383.918 193.924L384.236 191.885L386.556 193.194L386.238 195.252Z" fill="#42FFFF"/>
<path opacity="0.5" d="M366.167 188.91L361.453 186.235L361.771 184.178L366.485 186.871L366.167 188.91Z" fill="#42FFFF"/>
<path opacity="0.5" d="M391.775 162.816L398.323 166.538L398.641 164.499L392.093 160.777L391.775 162.816Z" fill="#42FFFF"/>
<path opacity="0.5" d="M392.449 168.278L397.593 171.196L397.911 169.157L392.767 166.239L392.449 168.278Z" fill="#42FFFF"/>
<path opacity="0.5" d="M393.123 173.759L396.846 175.872L397.182 173.833L393.46 171.701L393.123 173.759Z" fill="#42FFFF"/>
<path opacity="0.5" d="M390.711 177.462L396.117 180.53L396.435 178.491L391.029 175.405L390.711 177.462Z" fill="#42FFFF"/>
<path opacity="0.5" d="M391.664 183.093L395.387 185.207L395.705 183.149L391.982 181.035L391.664 183.093Z" fill="#42FFFF"/>
<path opacity="0.5" d="M389.924 187.189L394.656 189.864L394.975 187.825L390.261 185.131L389.924 187.189Z" fill="#42FFFF"/>
<path opacity="0.5" d="M391.346 193.063L393.927 194.522L394.245 192.483L391.664 191.024L391.346 193.063Z" fill="#42FFFF"/>
<path opacity="0.5" d="M388.203 196.356L393.179 199.199L393.516 197.16L388.521 194.317L388.203 196.356Z" fill="#42FFFF"/>
<path opacity="0.5" d="M387.734 201.182L392.448 203.857L392.766 201.818L388.052 199.143L387.734 201.182Z" fill="#42FFFF"/>
<path opacity="0.5" d="M369.609 190.874L367.607 189.733L367.925 187.694L369.927 188.835L369.609 190.874Z" fill="#42FFFF"/>
<path opacity="0.5" d="M375.576 194.261L371.049 191.698L371.386 189.659L375.894 192.222L375.576 194.261Z" fill="#42FFFF"/>
<path opacity="0.5" d="M377.185 209.955L369.553 205.615L369.871 203.576L377.503 207.916L377.185 209.955Z" fill="#42FFFF"/>
<path opacity="0.5" d="M382.403 212.929L379.41 211.227L379.728 209.169L382.721 210.89L382.403 212.929Z" fill="#42FFFF"/>
<path opacity="0.5" d="M258.701 41.0194L249.254 35.6507L249.591 33.593L259.019 38.9804L258.701 41.0194Z" fill="#42FFFF"/>
<path opacity="0.5" d="M263.545 43.7693L260.141 41.8426L260.459 39.7849L263.863 41.7304L263.545 43.7693Z" fill="#42FFFF"/>
<path opacity="0.5" d="M267.304 45.9019L264.984 44.5924L265.302 42.5535L267.622 43.8629L267.304 45.9019Z" fill="#42FFFF"/>
<path opacity="0.5" d="M253.668 43.2269L248.523 40.3088L248.841 38.2698L253.986 41.1879L253.668 43.2269Z" fill="#42FFFF"/>
<path opacity="0.5" d="M261.413 47.6415L255.109 44.05L255.446 42.011L261.75 45.6026L261.413 47.6415Z" fill="#42FFFF"/>
<path opacity="0.5" d="M265.173 49.7737L262.854 48.4643L263.19 46.4253L265.491 47.7347L265.173 49.7737Z" fill="#42FFFF"/>
<path opacity="0.5" d="M268.745 51.8129L266.426 50.4848L266.763 48.4458L269.063 49.7552L268.745 51.8129Z" fill="#42FFFF"/>
<path d="M251.515 47.0992L247.793 44.9667L248.111 42.9277L251.833 45.0415L251.515 47.0992Z" fill="#42FFFF"/>
<path d="M254.229 48.6328L252.957 47.9032L253.275 45.8643L254.547 46.5938L254.229 48.6328Z" fill="#42FFFF"/>
<path opacity="0.5" d="M257.99 50.7654L255.67 49.456L255.988 47.417L258.308 48.7264L257.99 50.7654Z" fill="#42FFFF"/>
<path opacity="0.5" d="M260.795 57.4624L247.064 49.6432L247.382 47.6042L261.113 55.4047L260.795 57.4624Z" fill="#42FFFF"/>
<path opacity="0.5" d="M265.641 60.2122L262.236 58.2668L262.573 56.2278L265.959 58.1732L265.641 60.2122Z" fill="#42FFFF"/>
<path opacity="0.5" d="M250.058 56.4145L246.336 54.3007L246.654 52.2617L250.376 54.3755L250.058 56.4145Z" fill="#42FFFF"/>
<path opacity="0.5" d="M258.793 61.39L251.498 57.2372L251.816 55.1982L259.111 59.351L258.793 61.39Z" fill="#42FFFF"/>
<path opacity="0.5" d="M262.533 63.523L260.232 62.2135L260.55 60.1746L262.851 61.484L262.533 63.523Z" fill="#42FFFF"/>
<path opacity="0.5" d="M253.219 63.2986L245.605 58.9774L245.923 56.9385L253.537 61.2596L253.219 63.2986Z" fill="#42FFFF"/>
<path d="M260.158 67.2639L254.658 64.1212L254.976 62.0823L260.476 65.2062L260.158 67.2639Z" fill="#42FFFF"/>
<path opacity="0.5" d="M265.322 70.2005L261.6 68.068L261.918 66.0291L265.64 68.1429L265.322 70.2005Z" fill="#42FFFF"/>
<path opacity="0.5" d="M247.439 65.0945L244.857 63.6354L245.175 61.5964L247.757 63.0555L247.439 65.0945Z" fill="#42FFFF"/>
<path opacity="0.5" d="M252.283 67.8628L248.879 65.9174L249.197 63.8784L252.601 65.8052L252.283 67.8628Z" fill="#42FFFF"/>
<path opacity="0.5" d="M259.204 71.7916L253.723 68.6676L254.041 66.6287L259.522 69.7526L259.204 71.7916Z" fill="#42FFFF"/>
<path opacity="0.5" d="M252.002 72.7824L244.127 68.3116L244.445 66.2539L252.339 70.7434L252.002 72.7824Z" fill="#42FFFF"/>
<path opacity="0.5" d="M260.832 77.7956L253.443 73.6054L253.78 71.5664L261.15 75.7566L260.832 77.7956Z" fill="#42FFFF"/>
<path d="M264.593 79.9285L262.273 78.619L262.591 76.5801L264.911 77.8895L264.593 79.9285Z" fill="#42FFFF"/>
<path opacity="0.5" d="M268.184 81.9861L265.883 80.6767L266.201 78.6377L268.502 79.9471L268.184 81.9861Z" fill="#42FFFF"/>
<path opacity="0.5" d="M248.112 75.6444L243.398 72.9694L243.716 70.9304L248.43 73.6054L248.112 75.6444Z" fill="#42FFFF"/>
<path d="M273.721 49.5492L280.268 53.2718L280.586 51.2328L274.039 47.5103L273.721 49.5492Z" fill="#42FFFF"/>
<path opacity="0.5" d="M274.395 55.0114L279.539 57.9483L279.857 55.9093L274.713 52.9724L274.395 55.0114Z" fill="#42FFFF"/>
<path opacity="0.5" d="M275.088 60.4926L278.81 62.6064L279.128 60.5674L275.406 58.4536L275.088 60.4926Z" fill="#42FFFF"/>
<path opacity="0.5" d="M272.654 64.1965L278.079 67.283L278.397 65.2253L272.972 62.1575L272.654 64.1965Z" fill="#42FFFF"/>
<path opacity="0.5" d="M273.609 69.8268L277.332 71.9406L277.669 69.9016L273.946 67.7878L273.609 69.8268Z" fill="#42FFFF"/>
<path opacity="0.5" d="M271.887 73.9242L276.601 76.5992L276.919 74.5602L272.205 71.8853L271.887 73.9242Z" fill="#42FFFF"/>
<path opacity="0.5" d="M273.311 79.8161L275.873 81.2751L276.191 79.2362L273.629 77.7771L273.311 79.8161Z" fill="#42FFFF"/>
<path opacity="0.5" d="M270.148 83.1083L275.143 85.933L275.461 83.894L270.485 81.0693L270.148 83.1083Z" fill="#42FFFF"/>
<path opacity="0.5" d="M269.68 87.9162L274.412 90.6099L274.73 88.5709L270.016 85.8772L269.68 87.9162Z" fill="#42FFFF"/>
<path opacity="0.5" d="M251.573 77.6088L249.553 76.4677L249.889 74.4287L251.891 75.5698L251.573 77.6088Z" fill="#42FFFF"/>
<path opacity="0.5" d="M257.522 81.013L253.014 78.4316L253.332 76.3926L257.859 78.9553L257.522 81.013Z" fill="#42FFFF"/>
<path opacity="0.5" d="M295.327 61.764L285.881 56.3766L286.199 54.3376L295.645 59.7063L295.327 61.764Z" fill="#42FFFF"/>
<path opacity="0.5" d="M300.172 64.514L296.768 62.5685L297.086 60.5295L300.49 62.475L300.172 64.514Z" fill="#42FFFF"/>
<path d="M303.912 66.6469L301.611 65.3375L301.929 63.2798L304.249 64.6079L303.912 66.6469Z" fill="#42FFFF"/>
<path opacity="0.5" d="M290.295 63.9716L285.15 61.0534L285.468 59.0144L290.613 61.9326L290.295 63.9716Z" fill="#42FFFF"/>
<path opacity="0.5" d="M298.04 68.3862L291.736 64.7946L292.054 62.7556L298.358 66.3472L298.04 68.3862Z" fill="#42FFFF"/>
<path d="M301.798 70.519L299.479 69.2095L299.815 67.1519L302.116 68.48L301.798 70.519Z" fill="#42FFFF"/>
<path opacity="0.5" d="M305.372 72.5388L303.053 71.2294L303.371 69.1904L305.69 70.4999L305.372 72.5388Z" fill="#42FFFF"/>
<path opacity="0.5" d="M288.142 67.8256L284.42 65.7118L284.738 63.6729L288.46 65.7866L288.142 67.8256Z" fill="#42FFFF"/>
<path opacity="0.5" d="M290.856 69.3779L289.584 68.6483L289.902 66.6094L291.174 67.3389L290.856 69.3779Z" fill="#42FFFF"/>
<path opacity="0.5" d="M294.616 71.5105L292.297 70.2011L292.615 68.1621L294.934 69.4715L294.616 71.5105Z" fill="#42FFFF"/>
<path opacity="0.5" d="M297.422 78.1891L283.691 70.3886L284.009 68.3496L297.74 76.1501L297.422 78.1891Z" fill="#42FFFF"/>
<path opacity="0.5" d="M302.268 80.9568L298.863 79.0114L299.2 76.9724L302.586 78.8991L302.268 80.9568Z" fill="#42FFFF"/>
<path opacity="0.5" d="M286.685 77.1591L282.963 75.0453L283.281 73.0063L287.003 75.1201L286.685 77.1591Z" fill="#42FFFF"/>
<path opacity="0.5" d="M295.42 82.1358L288.125 77.9831L288.443 75.9441L295.738 80.0969L295.42 82.1358Z" fill="#42FFFF"/>
<path opacity="0.5" d="M299.16 84.2676L296.859 82.9582L297.177 80.9192L299.478 82.2286L299.16 84.2676Z" fill="#42FFFF"/>
<path d="M289.845 84.0439L282.213 79.7227L282.55 77.665L290.163 82.0049L289.845 84.0439Z" fill="#42FFFF"/>
<path opacity="0.5" d="M296.785 87.9903L291.285 84.8664L291.603 82.8274L297.103 85.9513L296.785 87.9903Z" fill="#42FFFF"/>
<path opacity="0.5" d="M301.949 90.9282L298.227 88.8144L298.545 86.7754L302.267 88.8892L301.949 90.9282Z" fill="#42FFFF"/>
<path opacity="0.5" d="M284.066 85.8396L281.484 84.3805L281.802 82.3416L284.384 83.8006L284.066 85.8396Z" fill="#42FFFF"/>
<path opacity="0.5" d="M288.91 88.5888L285.506 86.662L285.824 84.623L289.228 86.5498L288.91 88.5888Z" fill="#42FFFF"/>
<path d="M295.831 92.5362L290.35 89.4123L290.668 87.3733L296.149 90.4972L295.831 92.5362Z" fill="#42FFFF"/>
<path opacity="0.5" d="M288.629 93.5275L280.754 89.038L281.072 86.999L288.947 91.4885L288.629 93.5275Z" fill="#42FFFF"/>
<path opacity="0.5" d="M297.459 98.5414L290.07 94.3512L290.407 92.3123L297.777 96.5024L297.459 98.5414Z" fill="#42FFFF"/>
<path opacity="0.5" d="M301.22 100.673L298.9 99.3637L299.218 97.3247L301.538 98.6341L301.22 100.673Z" fill="#42FFFF"/>
<path opacity="0.5" d="M304.811 102.731L302.51 101.422L302.828 99.3643L305.129 100.692L304.811 102.731Z" fill="#42FFFF"/>
<path opacity="0.5" d="M284.739 96.389L280.025 93.714L280.343 91.675L285.057 94.35L284.739 96.389Z" fill="#42FFFF"/>
<path d="M310.348 70.2939L316.895 74.0164L317.213 71.9774L310.666 68.2549L310.348 70.2939Z" fill="#42FFFF"/>
<path opacity="0.5" d="M311.021 75.7572L316.166 78.6941L316.484 76.6364L311.34 73.7183L311.021 75.7572Z" fill="#42FFFF"/>
<path opacity="0.5" d="M311.713 81.2372L315.435 83.351L315.753 81.3121L312.031 79.1982L311.713 81.2372Z" fill="#42FFFF"/>
<path opacity="0.5" d="M309.281 84.9411L314.706 88.0089L315.024 85.9699L309.599 82.9021L309.281 84.9411Z" fill="#42FFFF"/>
<path opacity="0.5" d="M310.234 90.5724L313.957 92.6862L314.294 90.6472L310.571 88.5334L310.234 90.5724Z" fill="#42FFFF"/>
<path opacity="0.5" d="M308.514 94.6689L313.228 97.3439L313.546 95.3049L308.832 92.6299L308.514 94.6689Z" fill="#42FFFF"/>
<path opacity="0.5" d="M309.936 100.543L312.498 102.021L312.816 99.9819L310.254 98.5042L309.936 100.543Z" fill="#42FFFF"/>
<path opacity="0.5" d="M306.775 103.853L311.77 106.678L312.088 104.639L307.112 101.796L306.775 103.853Z" fill="#42FFFF"/>
<path opacity="0.5" d="M306.307 108.661L311.039 111.354L311.357 109.297L306.625 106.622L306.307 108.661Z" fill="#42FFFF"/>
<path d="M288.2 98.3534L286.18 97.2123L286.516 95.1733L288.518 96.3144L288.2 98.3534Z" fill="#42FFFF"/>
<path opacity="0.5" d="M294.149 101.74L289.641 99.1774L289.959 97.1384L294.486 99.7012L294.149 101.74Z" fill="#42FFFF"/>
<path opacity="0.5" d="M252.098 83.0341L242.67 77.6654L242.988 75.6265L252.416 80.9951L252.098 83.0341Z" fill="#42FFFF"/>
<path opacity="0.5" d="M256.942 85.7831L253.537 83.8564L253.874 81.8174L257.26 83.7441L256.942 85.7831Z" fill="#42FFFF"/>
<path opacity="0.5" d="M260.702 87.916L258.383 86.6066L258.701 84.5676L261.02 85.8771L260.702 87.916Z" fill="#42FFFF"/>
<path opacity="0.5" d="M247.064 85.2598L241.92 82.3229L242.257 80.2839L247.401 83.2021L247.064 85.2598Z" fill="#42FFFF"/>
<path opacity="0.5" d="M254.827 89.6557L248.504 86.0641L248.841 84.0251L255.145 87.6167L254.827 89.6557Z" fill="#42FFFF"/>
<path opacity="0.5" d="M258.568 91.7874L256.268 90.4779L256.586 88.439L258.886 89.7484L258.568 91.7874Z" fill="#42FFFF"/>
<path opacity="0.5" d="M262.141 93.8271L259.84 92.5176L260.158 90.46L262.459 91.7881L262.141 93.8271Z" fill="#42FFFF"/>
<path opacity="0.5" d="M244.914 89.1134L241.191 86.9996L241.509 84.9419L245.232 87.0744L244.914 89.1134Z" fill="#42FFFF"/>
<path opacity="0.5" d="M247.626 90.6469L246.354 89.9361L246.672 87.8784L247.944 88.608L247.626 90.6469Z" fill="#42FFFF"/>
<path opacity="0.5" d="M251.386 92.7796L249.066 91.4701L249.403 89.4312L251.704 90.7406L251.386 92.7796Z" fill="#42FFFF"/>
<path opacity="0.5" d="M254.191 99.4766L240.461 91.6574L240.779 89.6184L254.528 97.4376L254.191 99.4766Z" fill="#42FFFF"/>
<path opacity="0.5" d="M259.036 102.226L255.65 100.3L255.968 98.2419L259.354 100.187L259.036 102.226Z" fill="#42FFFF"/>
<path opacity="0.5" d="M243.455 98.4474L239.732 96.3148L240.05 94.2759L243.773 96.3897L243.455 98.4474Z" fill="#42FFFF"/>
<path opacity="0.5" d="M252.19 103.404L244.895 99.2514L245.213 97.2124L252.508 101.365L252.19 103.404Z" fill="#42FFFF"/>
<path opacity="0.5" d="M255.932 105.537L253.631 104.228L253.949 102.189L256.268 103.498L255.932 105.537Z" fill="#42FFFF"/>
<path opacity="0.5" d="M246.615 105.313L239.002 100.992L239.32 98.9526L246.933 103.274L246.615 105.313Z" fill="#42FFFF"/>
<path opacity="0.5" d="M253.556 109.278L248.057 106.135L248.375 104.096L253.874 107.22L253.556 109.278Z" fill="#42FFFF"/>
<path opacity="0.5" d="M258.719 112.215L254.996 110.101L255.333 108.043L259.055 110.157L258.719 112.215Z" fill="#42FFFF"/>
<path opacity="0.5" d="M240.835 107.109L238.254 105.65L238.591 103.611L241.153 105.07L240.835 107.109Z" fill="#42FFFF"/>
<path opacity="0.5" d="M245.68 109.877L242.275 107.931L242.593 105.892L245.998 107.819L245.68 109.877Z" fill="#42FFFF"/>
<path opacity="0.5" d="M252.602 113.805L247.121 110.7L247.439 108.642L252.92 111.766L252.602 113.805Z" fill="#42FFFF"/>
<path opacity="0.5" d="M245.401 114.797L237.525 110.326L237.843 108.268L245.737 112.758L245.401 114.797Z" fill="#42FFFF"/>
<path opacity="0.5" d="M254.23 119.828L246.859 115.619L247.177 113.58L254.548 117.77L254.23 119.828Z" fill="#42FFFF"/>
<path opacity="0.5" d="M257.99 121.961L255.67 120.632L256.007 118.594L258.308 119.903L257.99 121.961Z" fill="#42FFFF"/>
<path opacity="0.5" d="M261.58 124L259.279 122.691L259.597 120.652L261.917 121.961L261.58 124Z" fill="#42FFFF"/>
<path opacity="0.5" d="M241.509 117.677L236.795 114.984L237.113 112.945L241.846 115.62L241.509 117.677Z" fill="#42FFFF"/>
<path opacity="0.5" d="M267.117 91.5821L273.664 95.3046L273.982 93.2469L267.454 89.5244L267.117 91.5821Z" fill="#42FFFF"/>
<path opacity="0.5" d="M267.791 97.0443L272.935 99.9624L273.253 97.9234L268.109 94.9866L267.791 97.0443Z" fill="#42FFFF"/>
<path opacity="0.5" d="M268.482 102.507L272.205 104.621L272.523 102.582L268.8 100.468L268.482 102.507Z" fill="#42FFFF"/>
<path opacity="0.5" d="M266.051 106.211L271.476 109.297L271.794 107.258L266.387 104.172L266.051 106.211Z" fill="#42FFFF"/>
<path opacity="0.5" d="M267.023 111.841L270.746 113.955L271.064 111.916L267.341 109.802L267.023 111.841Z" fill="#42FFFF"/>
<path opacity="0.5" d="M265.283 115.938L269.997 118.631L270.334 116.574L265.601 113.899L265.283 115.938Z" fill="#42FFFF"/>
<path opacity="0.5" d="M266.707 121.83L269.27 123.289L269.588 121.25L267.025 119.791L266.707 121.83Z" fill="#42FFFF"/>
<path opacity="0.5" d="M263.562 125.122L268.538 127.947L268.856 125.908L263.881 123.083L263.562 125.122Z" fill="#42FFFF"/>
<path opacity="0.5" d="M263.096 129.93L267.81 132.624L268.128 130.585L263.414 127.891L263.096 129.93Z" fill="#42FFFF"/>
<path opacity="0.5" d="M244.968 119.623L242.967 118.482L243.285 116.443L245.286 117.584L244.968 119.623Z" fill="#42FFFF"/>
<path opacity="0.5" d="M250.937 123.027L246.41 120.446L246.728 118.407L251.255 120.988L250.937 123.027Z" fill="#42FFFF"/>
<path opacity="0.5" d="M252.527 138.722L244.914 134.382L245.232 132.343L252.864 136.664L252.527 138.722Z" fill="#42FFFF"/>
<path opacity="0.5" d="M257.766 141.677L254.754 139.975L255.072 137.936L258.084 139.638L257.766 141.677Z" fill="#42FFFF"/>
<path opacity="0.5" d="M288.724 103.778L279.277 98.4095L279.614 96.3518L289.042 101.72L288.724 103.778Z" fill="#42FFFF"/>
<path opacity="0.5" d="M293.569 106.528L290.164 104.583L290.482 102.544L293.887 104.489L293.569 106.528Z" fill="#42FFFF"/>
<path opacity="0.5" d="M297.329 108.661L295.01 107.351L295.328 105.312L297.647 106.622L297.329 108.661Z" fill="#42FFFF"/>
<path opacity="0.5" d="M283.691 105.986L278.547 103.068L278.865 101.029L284.009 103.947L283.691 105.986Z" fill="#42FFFF"/>
<path opacity="0.5" d="M291.435 110.4L285.131 106.809L285.468 104.77L291.772 108.361L291.435 110.4Z" fill="#42FFFF"/>
<path opacity="0.5" d="M295.195 112.534L292.895 111.224L293.213 109.185L295.513 110.495L295.195 112.534Z" fill="#42FFFF"/>
<path opacity="0.5" d="M298.769 114.573L296.449 113.245L296.786 111.206L299.087 112.515L298.769 114.573Z" fill="#42FFFF"/>
<path opacity="0.5" d="M281.541 109.858L277.818 107.726L278.136 105.687L281.859 107.801L281.541 109.858Z" fill="#42FFFF"/>
<path opacity="0.5" d="M284.252 111.392L282.98 110.663L283.298 108.624L284.57 109.353L284.252 111.392Z" fill="#42FFFF"/>
<path opacity="0.5" d="M288.013 113.525L285.693 112.215L286.011 110.176L288.331 111.486L288.013 113.525Z" fill="#42FFFF"/>
<path opacity="0.5" d="M290.818 120.221L277.088 112.402L277.406 110.363L291.155 118.164L290.818 120.221Z" fill="#42FFFF"/>
<path opacity="0.5" d="M295.662 122.971L292.258 121.026L292.595 118.987L295.98 120.932L295.662 122.971Z" fill="#42FFFF"/>
<path opacity="0.5" d="M280.08 119.173L276.357 117.059L276.675 115.021L280.398 117.134L280.08 119.173Z" fill="#42FFFF"/>
<path opacity="0.5" d="M288.817 124.15L281.521 119.997L281.839 117.958L289.135 122.111L288.817 124.15Z" fill="#42FFFF"/>
<path opacity="0.5" d="M292.559 126.282L290.258 124.972L290.576 122.933L292.877 124.243L292.559 126.282Z" fill="#42FFFF"/>
<path opacity="0.5" d="M283.242 126.058L275.629 121.737L275.947 119.679L283.56 124.019L283.242 126.058Z" fill="#42FFFF"/>
<path opacity="0.5" d="M290.183 130.004L284.684 126.881L285.002 124.842L290.501 127.965L290.183 130.004Z" fill="#42FFFF"/>
<path opacity="0.5" d="M295.346 132.942L291.623 130.828L291.96 128.789L295.664 130.903L295.346 132.942Z" fill="#42FFFF"/>
<path opacity="0.5" d="M277.462 127.854L274.881 126.395L275.218 124.356L277.78 125.815L277.462 127.854Z" fill="#42FFFF"/>
<path opacity="0.5" d="M282.307 130.604L278.902 128.677L279.22 126.638L282.625 128.565L282.307 130.604Z" fill="#42FFFF"/>
<path opacity="0.5" d="M289.229 134.55L283.748 131.426L284.066 129.387L289.547 132.511L289.229 134.55Z" fill="#42FFFF"/>
<path opacity="0.5" d="M282.028 135.541L274.152 131.052L274.47 129.013L282.364 133.502L282.028 135.541Z" fill="#42FFFF"/>
<path opacity="0.5" d="M290.857 140.556L283.486 136.365L283.804 134.326L291.175 138.517L290.857 140.556Z" fill="#42FFFF"/>
<path opacity="0.5" d="M294.616 142.687L292.297 141.378L292.615 139.339L294.934 140.648L294.616 142.687Z" fill="#42FFFF"/>
<path opacity="0.5" d="M298.207 144.746L295.906 143.436L296.224 141.378L298.525 142.707L298.207 144.746Z" fill="#42FFFF"/>
<path opacity="0.5" d="M278.136 138.403L273.422 135.728L273.74 133.689L278.473 136.364L278.136 138.403Z" fill="#42FFFF"/>
<path opacity="0.5" d="M303.744 112.309L310.291 116.032L310.609 113.993L304.062 110.27L303.744 112.309Z" fill="#42FFFF"/>
<path opacity="0.5" d="M304.418 117.771L309.562 120.708L309.88 118.669L304.736 115.732L304.418 117.771Z" fill="#42FFFF"/>
<path opacity="0.5" d="M305.109 123.251L308.832 125.365L309.15 123.326L305.427 121.212L305.109 123.251Z" fill="#42FFFF"/>
<path opacity="0.5" d="M302.68 126.955L308.104 130.042L308.422 127.984L302.998 124.916L302.68 126.955Z" fill="#42FFFF"/>
<path opacity="0.5" d="M303.65 132.586L307.373 134.7L307.691 132.661L303.968 130.547L303.65 132.586Z" fill="#42FFFF"/>
<path opacity="0.5" d="M301.912 136.683L306.626 139.358L306.963 137.319L302.23 134.644L301.912 136.683Z" fill="#42FFFF"/>
<path opacity="0.5" d="M303.332 142.576L305.895 144.035L306.213 141.996L303.65 140.518L303.332 142.576Z" fill="#42FFFF"/>
<path opacity="0.5" d="M300.191 145.868L305.167 148.693L305.485 146.654L300.509 143.829L300.191 145.868Z" fill="#42FFFF"/>
<path opacity="0.5" d="M299.703 150.675L304.436 153.369L304.754 151.311L300.04 148.636L299.703 150.675Z" fill="#42FFFF"/>
<path opacity="0.5" d="M281.595 140.368L279.594 139.226L279.912 137.188L281.913 138.329L281.595 140.368Z" fill="#42FFFF"/>
<path opacity="0.5" d="M287.564 143.773L283.037 141.192L283.355 139.153L287.882 141.715L287.564 143.773Z" fill="#42FFFF"/>
<path opacity="0.5" d="M289.154 159.449L281.541 155.128L281.859 153.07L289.491 157.41L289.154 159.449Z" fill="#42FFFF"/>
<path opacity="0.5" d="M294.391 162.423L291.379 160.72L291.697 158.681L294.709 160.384L294.391 162.423Z" fill="#42FFFF"/>
<path d="M257.205 86.6245L266.016 81.5364C266.128 81.4616 266.278 81.4616 266.465 81.5551L376.962 145.362C377.318 145.568 377.617 146.129 377.617 146.615V167.473C377.617 167.697 377.542 167.866 377.43 167.959L377.411 167.978L368.507 173.103L368.432 163.021L266.465 104.152C266.109 103.946 265.81 103.385 265.81 102.899V95.7344L257.205 86.6245Z" fill="url(#paint16_linear_196_2553)"/>
<path d="M257.598 109.259L368.096 173.066C368.451 173.272 368.75 173.047 368.75 172.58V151.722C368.75 151.236 368.451 150.675 368.096 150.469L257.598 86.6623C257.243 86.4565 256.943 86.681 256.943 87.1486V108.006C256.943 108.492 257.243 109.054 257.598 109.259Z" fill="url(#paint17_linear_196_2553)"/>
<path opacity="0.6" d="M272.843 105.05L358.892 155.65C356.235 157.932 353.71 160.57 351.409 163.432L264.725 113.393C267.213 110.269 269.944 107.463 272.843 105.05Z" fill="#338ECC"/>
<path d="M260.76 102.992L364.953 163.152C365.196 163.301 365.402 163.152 365.402 162.815V157.577C365.402 157.24 365.196 156.866 364.953 156.717L260.76 96.5575C260.516 96.4079 260.311 96.5575 260.311 96.8942V102.132C260.311 102.469 260.498 102.862 260.76 102.992Z" fill="#338ECC"/>
<path d="M260.76 96.5756L262.873 97.7915V100.616C262.873 100.953 263.079 101.327 263.322 101.477L365.402 160.42V162.833C365.402 163.17 365.196 163.319 364.953 163.17L260.76 103.011C260.516 102.861 260.311 102.487 260.311 102.15V96.9123C260.311 96.5756 260.498 96.4259 260.76 96.5756Z" fill="#338ECC"/>
<path opacity="0.96" d="M202.208 328.72L115.523 278.681C126.71 272.228 136.138 258.086 139.018 244.58C140.178 239.099 143.545 234.347 148.39 231.542L213.899 193.736C232.138 183.205 243.979 164.237 245.214 143.211C246.261 125.459 259.692 107.987 270.111 101.982L356.796 152.022C346.526 157.951 335.228 174.506 333.937 191.959C332.384 212.985 320.955 232.028 302.698 242.56L235.093 281.581C230.249 284.387 226.9 289.138 225.722 294.619C222.822 308.125 213.394 322.267 202.208 328.72Z" fill="url(#paint18_linear_196_2553)"/>
<path opacity="0.8" d="M270.094 101.963L356.778 152.002C356.086 152.395 355.394 152.844 354.72 153.293L268.055 103.254C268.709 102.786 269.402 102.356 270.094 101.963Z" fill="#338ECC"/>
<g opacity="0.32">
<path opacity="0.32" d="M302.697 161.151L317.887 169.962L318.018 168.222L302.847 159.449L302.697 161.151Z" fill="black"/>
<path opacity="0.32" d="M295.027 156.717L300.396 159.823L300.546 158.12L295.196 155.015L295.027 156.717Z" fill="black"/>
<path opacity="0.32" d="M289.154 153.313L292.765 155.408L292.933 153.706L289.323 151.629L289.154 153.313Z" fill="black"/>
<path opacity="0.32" d="M309.246 169.121L317.608 174.003L317.739 172.226L309.396 167.381L309.246 169.121Z" fill="black"/>
<path opacity="0.32" d="M296.861 161.9L306.925 167.773L307.075 166.034L297.011 160.179L296.861 161.9Z" fill="black"/>
<path opacity="0.32" d="M290.932 158.457L294.579 160.571L294.729 158.869L291.1 156.755L290.932 158.457Z" fill="black"/>
<path opacity="0.32" d="M285.34 155.202L288.95 157.297L289.137 155.595L285.527 153.5L285.34 155.202Z" fill="black"/>
<path opacity="0.32" d="M311.248 174.489L317.328 178.062L317.458 176.284L311.379 172.73L311.248 174.489Z" fill="black"/>
<path opacity="0.32" d="M306.832 171.926L308.89 173.123L309.039 171.364L306.982 170.167L306.832 171.926Z" fill="black"/>
<path opacity="0.32" d="M300.809 168.39L304.512 170.56L304.662 168.802L300.958 166.632L300.809 168.39Z" fill="black"/>
<path opacity="0.32" d="M294.768 169.045L317.028 182.158L317.159 180.362L294.936 167.305L294.768 169.045Z" fill="black"/>
<path opacity="0.32" d="M287.098 164.518L292.466 167.698L292.635 165.958L287.266 162.797L287.098 164.518Z" fill="black"/>
<path opacity="0.32" d="M310.611 182.663L316.747 186.292L316.878 184.478L310.761 180.868L310.611 182.663Z" fill="black"/>
<path opacity="0.32" d="M296.432 174.264L308.254 181.26L308.404 179.465L296.6 172.506L296.432 174.264Z" fill="black"/>
<path opacity="0.32" d="M290.445 170.709L294.13 172.898L294.299 171.14L290.614 168.97L290.445 170.709Z" fill="black"/>
<path opacity="0.32" d="M303.914 183L316.447 190.464L316.578 188.63L304.064 181.204L303.914 183Z" fill="black"/>
<path opacity="0.32" d="M292.672 176.303L301.576 181.597L301.726 179.802L292.84 174.526L292.672 176.303Z" fill="black"/>
<path opacity="0.32" d="M284.441 171.402L290.371 174.938L290.54 173.161L284.628 169.644L284.441 171.402Z" fill="black"/>
<path opacity="0.32" d="M311.883 192.11L316.167 194.673L316.279 192.821L312.014 190.277L311.883 192.11Z" fill="black"/>
<path opacity="0.32" d="M303.896 187.322L309.49 190.67L309.639 188.837L304.046 185.507L303.896 187.322Z" fill="black"/>
<path opacity="0.32" d="M292.652 180.606L301.538 185.918L301.687 184.104L292.821 178.81L292.652 180.606Z" fill="black"/>
<path opacity="0.32" d="M302.793 191.044L315.869 198.9L316 197.048L302.943 189.21L302.793 191.044Z" fill="black"/>
<path opacity="0.32" d="M288.443 182.401L300.415 189.603L300.584 187.789L288.63 180.606L288.443 182.401Z" fill="black"/>
<path opacity="0.32" d="M282.439 178.791L286.125 181.018L286.312 179.222L282.627 177.014L282.439 178.791Z" fill="black"/>
<path opacity="0.32" d="M276.715 175.349L280.381 177.557L280.568 175.779L276.921 173.591L276.715 175.349Z" fill="black"/>
<path opacity="0.32" d="M307.674 198.395L315.568 203.184L315.699 201.313L307.805 196.543L307.674 198.395Z" fill="black"/>
<path opacity="0.32" d="M272.881 143.885L263.004 138.142L263.21 136.534L273.087 142.239L272.881 143.885Z" fill="black"/>
<path opacity="0.32" d="M270.28 146.43L262.498 141.884L262.723 140.257L270.486 144.765L270.28 146.43Z" fill="black"/>
<path opacity="0.32" d="M267.643 148.955L261.994 145.663L262.219 143.998L267.849 147.29L267.643 148.955Z" fill="black"/>
<path opacity="0.32" d="M269.755 154.304L261.506 149.44L261.712 147.775L269.961 152.62L269.755 154.304Z" fill="black"/>
<path opacity="0.32" d="M266.689 156.643L261.002 153.276L261.208 151.592L266.894 154.959L266.689 156.643Z" fill="black"/>
<path opacity="0.32" d="M267.737 161.45L260.479 157.129L260.703 155.445L267.942 159.748L267.737 161.45Z" fill="black"/>
<path opacity="0.32" d="M263.92 163.396L259.973 161.02L260.197 159.318L264.144 161.675L263.92 163.396Z" fill="black"/>
<path opacity="0.32" d="M267.156 169.587L259.449 164.948L259.674 163.227L267.381 167.848L267.156 169.587Z" fill="black"/>
<path opacity="0.32" d="M266.259 173.347L258.926 168.914L259.15 167.174L266.483 171.589L266.259 173.347Z" fill="black"/>
<path opacity="0.32" d="M301.949 194.953L305.279 196.955L305.429 195.103L302.118 193.102L301.949 194.953Z" fill="black"/>
<path opacity="0.32" d="M292.205 189.043L299.575 193.513L299.744 191.68L292.373 187.228L292.205 189.043Z" fill="black"/>
</g>
<g opacity="0.32">
<g opacity="0.32">
<g opacity="0.32">
<path opacity="0.32" d="M246.71 218.56L224.113 205.503L225.722 204.567L248.338 217.624L246.71 218.56Z" fill="black"/>
<path opacity="0.32" d="M259.861 226.136L251.705 221.44L253.314 220.505L261.47 225.2L259.861 226.136Z" fill="black"/>
<path opacity="0.32" d="M266.408 229.914L264.014 228.53L265.622 227.613L268.017 228.979L266.408 229.914Z" fill="black"/>
<path opacity="0.32" d="M278.716 237.022L270.561 232.308L272.169 231.392L280.325 236.087L278.716 237.022Z" fill="black"/>
</g>
<g opacity="0.32">
<path opacity="0.32" d="M227.386 211.245L220.764 207.429L222.391 206.494L228.994 210.31L227.386 211.245Z" fill="black"/>
<path opacity="0.32" d="M256.511 228.062L232.361 214.126L233.97 213.191L258.138 227.146L256.511 228.062Z" fill="black"/>
<path opacity="0.32" d="M263.058 231.841L260.664 230.475L262.292 229.54L264.667 230.905L263.058 231.841Z" fill="black"/>
<path opacity="0.32" d="M275.367 238.949L267.211 234.254L268.82 233.318L276.976 238.014L275.367 238.949Z" fill="black"/>
<path opacity="0.32" d="M220.726 211.264L217.434 209.356L219.042 208.42L222.353 210.328L220.726 211.264Z" fill="black"/>
<path opacity="0.32" d="M229.632 216.408L225.723 214.144L227.331 213.209L231.26 215.472L229.632 216.408Z" fill="black"/>
<path opacity="0.32" d="M236.178 220.187L233.783 218.803L235.411 217.868L237.786 219.252L236.178 220.187Z" fill="black"/>
<path opacity="0.32" d="M248.486 227.295L240.33 222.582L241.939 221.646L250.095 226.36L248.486 227.295Z" fill="black"/>
<path opacity="0.32" d="M220.689 215.099L214.086 211.283L215.713 210.348L222.317 214.164L220.689 215.099Z" fill="black"/>
<path opacity="0.32" d="M233.839 222.693L225.684 217.979L227.292 217.044L235.448 221.758L233.839 222.693Z" fill="black"/>
<path opacity="0.32" d="M240.387 226.472L237.992 225.088L239.601 224.152L241.995 225.537L240.387 226.472Z" fill="black"/>
<path opacity="0.32" d="M252.695 233.58L244.539 228.866L246.148 227.931L254.304 232.645L252.695 233.58Z" fill="black"/>
</g>
</g>
<g opacity="0.32">
<g opacity="0.32">
<path opacity="0.32" d="M233.11 226.415L210.494 213.358L212.122 212.423L234.719 225.48L233.11 226.415Z" fill="black"/>
<path opacity="0.32" d="M246.242 233.991L238.086 229.296L239.695 228.361L247.869 233.056L246.242 233.991Z" fill="black"/>
<path opacity="0.32" d="M252.789 237.77L250.395 236.404L252.022 235.469L254.398 236.835L252.789 237.77Z" fill="black"/>
<path opacity="0.32" d="M265.097 244.878L256.941 240.183L258.55 239.248L266.706 243.943L265.097 244.878Z" fill="black"/>
</g>
<g opacity="0.32">
<path opacity="0.32" d="M213.767 219.101L207.164 215.285L208.773 214.35L215.376 218.166L213.767 219.101Z" fill="black"/>
<path opacity="0.32" d="M242.913 235.918L218.744 221.982L220.372 221.047L244.521 235.001L242.913 235.918Z" fill="black"/>
<path opacity="0.32" d="M249.459 239.696L247.064 238.331L248.673 237.395L251.068 238.78L249.459 239.696Z" fill="black"/>
<path opacity="0.32" d="M261.767 246.805L253.611 242.109L255.22 241.174L263.376 245.869L261.767 246.805Z" fill="black"/>
<path opacity="0.32" d="M207.127 219.119L203.816 217.211L205.444 216.276L208.736 218.184L207.127 219.119Z" fill="black"/>
<path opacity="0.32" d="M216.032 224.263L212.104 222L213.731 221.065L217.641 223.328L216.032 224.263Z" fill="black"/>
<path opacity="0.32" d="M222.578 228.043L220.184 226.659L221.792 225.723L224.187 227.108L222.578 228.043Z" fill="black"/>
<path opacity="0.32" d="M234.886 235.151L226.73 230.437L228.339 229.502L236.495 234.216L234.886 235.151Z" fill="black"/>
<path opacity="0.32" d="M207.09 222.954L200.486 219.138L202.095 218.222L208.698 222.019L207.09 222.954Z" fill="black"/>
<path opacity="0.32" d="M220.222 230.549L212.066 225.835L213.694 224.9L221.85 229.614L220.222 230.549Z" fill="black"/>
<path opacity="0.32" d="M226.769 234.328L224.375 232.943L226.002 232.008L228.397 233.392L226.769 234.328Z" fill="black"/>
<path opacity="0.32" d="M239.078 241.436L230.922 236.722L232.549 235.787L240.705 240.501L239.078 241.436Z" fill="black"/>
</g>
</g>
<g opacity="0.32">
<g opacity="0.32">
<path opacity="0.32" d="M219.492 234.273L196.895 221.216L198.503 220.281L221.1 233.338L219.492 234.273Z" fill="black"/>
<path opacity="0.32" d="M232.642 241.849L224.486 237.154L226.095 236.219L234.251 240.933L232.642 241.849Z" fill="black"/>
<path opacity="0.32" d="M239.189 245.628L236.795 244.262L238.404 243.327L240.798 244.711L239.189 245.628Z" fill="black"/>
<path opacity="0.32" d="M251.498 252.736L243.342 248.041L244.951 247.105L253.106 251.801L251.498 252.736Z" fill="black"/>
</g>
<g opacity="0.32">
<path opacity="0.32" d="M200.15 226.958L193.547 223.142L195.174 222.207L201.778 226.023L200.15 226.958Z" fill="black"/>
<path opacity="0.32" d="M229.294 243.775L205.145 229.839L206.753 228.904L230.903 242.859L229.294 243.775Z" fill="black"/>
<path opacity="0.32" d="M235.842 247.554L233.447 246.188L235.056 245.253L237.45 246.637L235.842 247.554Z" fill="black"/>
<path opacity="0.32" d="M248.15 254.662L239.994 249.967L241.603 249.031L249.759 253.745L248.15 254.662Z" fill="black"/>
<path opacity="0.32" d="M193.509 226.977L190.217 225.069L191.826 224.153L195.137 226.042L193.509 226.977Z" fill="black"/>
<path opacity="0.32" d="M202.415 232.121L198.506 229.857L200.115 228.922L204.024 231.186L202.415 232.121Z" fill="black"/>
<path opacity="0.32" d="M208.961 235.9L206.566 234.516L208.175 233.581L210.57 234.965L208.961 235.9Z" fill="black"/>
<path opacity="0.32" d="M221.269 243.009L213.113 238.295L214.722 237.359L222.878 242.073L221.269 243.009Z" fill="black"/>
<path opacity="0.32" d="M193.472 230.812L186.869 226.996L188.497 226.079L195.1 229.876L193.472 230.812Z" fill="black"/>
<path opacity="0.32" d="M206.623 238.407L198.467 233.693L200.076 232.757L208.231 237.471L206.623 238.407Z" fill="black"/>
<path opacity="0.32" d="M213.17 242.185L210.775 240.801L212.384 239.865L214.779 241.25L213.17 242.185Z" fill="black"/>
<path opacity="0.32" d="M225.478 249.294L217.322 244.58L218.931 243.644L227.087 248.358L225.478 249.294Z" fill="black"/>
</g>
</g>
</g>
<path d="M160.193 126.339L128.748 108.175L160.193 90.0112L191.638 108.175L160.193 126.339ZM130.45 108.175L160.193 125.347L189.917 108.175L160.174 91.0027L130.45 108.175Z" fill="#A5E3FD"/>
<path d="M98.0311 341.423L66.5859 323.259L98.0311 305.095L129.476 323.259L98.0311 341.423ZM68.2882 323.259L98.0311 340.431L127.755 323.259L98.0123 306.087L68.2882 323.259Z" fill="#A5E3FD"/>
<path d="M439.851 287.567L408.406 269.404L439.851 251.24L471.296 269.404L439.851 287.567ZM410.109 269.422L439.851 286.595L469.575 269.422L439.833 252.25L410.109 269.422Z" fill="#A5E3FD"/>
<path fill-rule="evenodd" clip-rule="evenodd" d="M82.0786 137.993L79.424 136.393L88.8058 130.865L91.4967 132.502L82.0786 137.993ZM78.0799 135.738L75.3526 134.102L79.2435 131.666L82.0799 133.338L78.0799 135.738ZM90.2242 147.447L68.5879 134.974L71.3152 133.265L93.0242 145.738L90.2242 147.447ZM83.3505 138.793L86.0778 140.429L91.5323 137.229L88.696 135.556L83.3505 138.793ZM90.1328 142.778L87.4055 141.142L100.751 133.251L103.587 134.924L90.1328 142.778Z" fill="#BDFCFF"/>
<path fill-rule="evenodd" clip-rule="evenodd" d="M478.569 155.883L458.857 167.526L478.569 178.85L481.329 177.329L464.024 167.526L481.329 157.369L478.569 155.883ZM478.161 167.183C478.031 167.117 477.911 167.043 477.804 166.963L472.648 167.761C472.345 168.45 471.27 168.959 469.99 168.959C468.475 168.959 467.247 168.246 467.247 167.366C467.247 166.487 468.475 165.774 469.99 165.774C470.872 165.774 471.657 166.016 472.159 166.392L477.293 165.64C477.565 164.927 478.66 164.394 479.97 164.394C481.485 164.394 482.713 165.107 482.713 165.986C482.713 166.791 481.684 167.457 480.348 167.564L479.113 170.47C479.251 170.529 479.38 170.595 479.497 170.667L488.399 169.271C488.582 168.495 489.729 167.897 491.116 167.897C492.631 167.897 493.858 168.61 493.858 169.49C493.858 170.369 492.631 171.082 491.116 171.082C490.355 171.082 489.667 170.903 489.17 170.612L480.201 172.009C479.991 172.768 478.859 173.347 477.493 173.347C475.978 173.347 474.75 172.634 474.75 171.755C474.75 171.001 475.652 170.37 476.863 170.205L478.161 167.183Z" fill="#BDFCFF"/>
<defs>
<linearGradient id="paint0_linear_196_2553" x1="114.87" y1="120.8" x2="45.4098" y2="176.5" gradientUnits="userSpaceOnUse">
<stop stop-color="#B4C2FF"/>
<stop offset="0.817708" stop-color="#D5DEFD"/>
<stop offset="1" stop-color="#EFF5FF"/>
</linearGradient>
<linearGradient id="paint1_linear_196_2553" x1="127.997" y1="137.793" x2="31.3804" y2="107.616" gradientUnits="userSpaceOnUse">
<stop stop-color="#C0D6FF"/>
<stop offset="0.2978" stop-color="#C5DBFF"/>
<stop offset="0.6488" stop-color="#D3E9FF"/>
<stop offset="1" stop-color="#E9FFFF"/>
</linearGradient>
<linearGradient id="paint2_linear_196_2553" x1="504.878" y1="169.733" x2="435.418" y2="225.432" gradientUnits="userSpaceOnUse">
<stop stop-color="#BCD5FF"/>
<stop offset="0.3125" stop-color="#A3BEFF"/>
<stop offset="1" stop-color="#9FB2FF"/>
</linearGradient>
<linearGradient id="paint3_linear_196_2553" x1="518.005" y1="186.724" x2="421.389" y2="156.548" gradientUnits="userSpaceOnUse">
<stop stop-color="#C0D6FF"/>
<stop offset="0.2978" stop-color="#C5DBFF"/>
<stop offset="0.6488" stop-color="#D3E9FF"/>
<stop offset="1" stop-color="#E9FFFF"/>
</linearGradient>
<linearGradient id="paint4_linear_196_2553" x1="518.005" y1="186.724" x2="421.389" y2="156.548" gradientUnits="userSpaceOnUse">
<stop stop-color="#C0D6FF"/>
<stop offset="0.2978" stop-color="#C5DBFF"/>
<stop offset="0.6488" stop-color="#D3E9FF"/>
<stop offset="1" stop-color="#E9FFFF"/>
</linearGradient>
<linearGradient id="paint5_linear_196_2553" x1="504.878" y1="151.457" x2="435.418" y2="207.156" gradientUnits="userSpaceOnUse">
<stop stop-color="#BCD5FF"/>
<stop offset="0.3125" stop-color="#A3BEFF"/>
<stop offset="1" stop-color="#9FB2FF"/>
</linearGradient>
<linearGradient id="paint6_linear_196_2553" x1="518.005" y1="168.449" x2="421.389" y2="138.273" gradientUnits="userSpaceOnUse">
<stop stop-color="#C0D6FF"/>
<stop offset="0.2978" stop-color="#C5DBFF"/>
<stop offset="0.6488" stop-color="#D3E9FF"/>
<stop offset="1" stop-color="#E9FFFF"/>
</linearGradient>
<linearGradient id="paint7_linear_196_2553" x1="429.662" y1="127.475" x2="215.628" y2="127.475" gradientUnits="userSpaceOnUse">
<stop stop-color="#C0D6FF"/>
<stop offset="0.2978" stop-color="#C5DBFF"/>
<stop offset="0.6488" stop-color="#D3E9FF"/>
<stop offset="1" stop-color="#E9FFFF"/>
</linearGradient>
<linearGradient id="paint8_linear_196_2553" x1="421.805" y1="114.234" x2="375.395" y2="119.723" gradientUnits="userSpaceOnUse">
<stop stop-color="#BCD5FF"/>
<stop offset="0.3125" stop-color="#A3BEFF"/>
<stop offset="1" stop-color="#9FB2FF"/>
</linearGradient>
<linearGradient id="paint9_linear_196_2553" x1="336.434" y1="163.421" x2="105.387" y2="353.269" gradientUnits="userSpaceOnUse">
<stop stop-color="#BCD5FF"/>
<stop offset="0.3125" stop-color="#A3BEFF"/>
<stop offset="1" stop-color="#9FB2FF"/>
</linearGradient>
<linearGradient id="paint10_linear_196_2553" x1="299.416" y1="233.989" x2="-3.03126" y2="233.989" gradientUnits="userSpaceOnUse">
<stop stop-color="#C0D6FF"/>
<stop offset="0.2978" stop-color="#C5DBFF"/>
<stop offset="0.6488" stop-color="#D3E9FF"/>
<stop offset="1" stop-color="#E9FFFF"/>
</linearGradient>
<linearGradient id="paint11_linear_196_2553" x1="248.199" y1="251.159" x2="170.781" y2="251.159" gradientUnits="userSpaceOnUse">
<stop stop-color="#C0D6FF"/>
<stop offset="0.2978" stop-color="#C5DBFF"/>
<stop offset="0.6488" stop-color="#D3E9FF"/>
<stop offset="1" stop-color="#E9FFFF"/>
</linearGradient>
<linearGradient id="paint12_linear_196_2553" x1="414.968" y1="166.952" x2="112.522" y2="166.952" gradientUnits="userSpaceOnUse">
<stop stop-color="#C0D6FF"/>
<stop offset="0.2978" stop-color="#C5DBFF"/>
<stop offset="0.6488" stop-color="#D3E9FF"/>
<stop offset="1" stop-color="#E9FFFF"/>
</linearGradient>
<linearGradient id="paint13_linear_196_2553" x1="434.873" y1="144.751" x2="357.456" y2="144.751" gradientUnits="userSpaceOnUse">
<stop stop-color="#C0D6FF"/>
<stop offset="0.2978" stop-color="#C5DBFF"/>
<stop offset="0.6488" stop-color="#D3E9FF"/>
<stop offset="1" stop-color="#E9FFFF"/>
</linearGradient>
<radialGradient id="paint14_radial_196_2553" cx="0" cy="0" r="1" gradientUnits="userSpaceOnUse" gradientTransform="translate(312.888 205.883) rotate(180) scale(86.7053)">
<stop stop-color="#2B3AA5"/>
<stop offset="1" stop-color="#182484"/>
</radialGradient>
<radialGradient id="paint15_radial_196_2553" cx="0" cy="0" r="1" gradientUnits="userSpaceOnUse" gradientTransform="translate(331.852 166.877) rotate(180) scale(66.3677)">
<stop stop-color="#2B3AA5"/>
<stop offset="1" stop-color="#182484"/>
</radialGradient>
<linearGradient id="paint16_linear_196_2553" x1="355.747" y1="186.037" x2="297.284" y2="80.767" gradientUnits="userSpaceOnUse">
<stop stop-color="#AFBFFF"/>
<stop offset="0.0398" stop-color="#AFBFFF"/>
<stop offset="0.0867" stop-color="#ADBFFF"/>
<stop offset="0.1372" stop-color="#BFCFFF"/>
<stop offset="0.1899" stop-color="#A3BEFF"/>
<stop offset="0.2237" stop-color="#BCD5FF"/>
</linearGradient>
<linearGradient id="paint17_linear_196_2553" x1="283.926" y1="186.411" x2="322.839" y2="110.341" gradientUnits="userSpaceOnUse">
<stop stop-color="#C0D6FF"/>
<stop offset="0.2978" stop-color="#C5DBFF"/>
<stop offset="0.6488" stop-color="#D3E9FF"/>
<stop offset="1" stop-color="#E9FFFF"/>
</linearGradient>
<linearGradient id="paint18_linear_196_2553" x1="178.75" y1="323.15" x2="302.423" y2="104.013" gradientUnits="userSpaceOnUse">
<stop stop-color="#C0D6FF"/>
<stop offset="0.0782" stop-color="#C3D9FF"/>
<stop offset="0.1341" stop-color="#CCE2FF"/>
<stop offset="0.1829" stop-color="#DCF2FF"/>
<stop offset="0.2117" stop-color="#E9FFFF"/>
<stop offset="0.256" stop-color="#D8EEFF"/>
<stop offset="0.3145" stop-color="#CBE1FF"/>
<stop offset="0.3869" stop-color="#C2D8FF"/>
<stop offset="0.5143" stop-color="#C0D6FF"/>
<stop offset="0.6239" stop-color="#D0E6FF"/>
<stop offset="0.755" stop-color="#E9FFFF"/>
<stop offset="1" stop-color="#C0D6FF"/>
</linearGradient>
</defs>
</svg>
