<svg width="454" height="409" viewBox="0 0 454 409" fill="none" xmlns="http://www.w3.org/2000/svg">
<path d="M384.646 330.854L354.969 351.412" stroke="#A5E3FD"/>
<path d="M195.752 325.079L176.251 337.303C174.969 338.107 175.009 339.986 176.322 340.735L257.707 387.15C258.35 387.516 259.142 387.498 259.767 387.103L291.418 367.079" stroke="#A5E3FD"/>
<path d="M313.817 330.477L274.086 354.723C272.775 355.523 272.818 357.443 274.165 358.183L363.873 407.494C364.528 407.854 365.329 407.818 365.95 407.402L403.957 381.924C405.204 381.088 405.12 379.227 403.802 378.507L315.818 330.429C315.19 330.086 314.427 330.105 313.817 330.477Z" stroke="#A5E3FD"/>
<path d="M315.219 337.728L284.418 355.912L363.219 399.228L392.418 379.912L315.219 337.728Z" fill="#E0F3FF"/>
<path d="M165.573 182.901V74.9008L194.771 62.8885L227.261 73.2085L261.971 57.6885L295.851 95.4585L329.451 155.228L363.051 184.588L428.639 280.634V337.901C428.639 340.041 428.323 339.901 426.883 339.901C426.373 339.901 411.251 330.928 410.581 330.538L169.973 191.301C166.353 189.201 165.573 187.881 165.573 182.901Z" fill="url(#paint0_linear_195_1378)"/>
<mask id="mask0_195_1378" style="mask-type:alpha" maskUnits="userSpaceOnUse" x="162" y="0" width="257" height="355">
<path d="M162.441 0.0380859V208.628L418.801 354.318V136.178L162.441 0.0380859Z" fill="url(#paint1_linear_195_1378)"/>
</mask>
<g mask="url(#mask0_195_1378)">
<path d="M329.62 280.668C330.06 280.668 330.42 280.308 330.42 279.868V276.688C330.42 276.248 330.06 275.888 329.62 275.888C329.18 275.888 328.82 276.248 328.82 276.688V279.868C328.82 280.318 329.18 280.668 329.62 280.668ZM329.62 272.708C330.06 272.708 330.42 272.348 330.42 271.908V268.728C330.42 268.288 330.06 267.928 329.62 267.928C329.18 267.928 328.82 268.288 328.82 268.728V271.908C328.82 272.358 329.18 272.708 329.62 272.708ZM329.62 264.748C330.06 264.748 330.42 264.388 330.42 263.948V260.768C330.42 260.328 330.06 259.968 329.62 259.968C329.18 259.968 328.82 260.328 328.82 260.768V263.948C328.82 264.388 329.18 264.748 329.62 264.748ZM329.62 256.788C330.06 256.788 330.42 256.428 330.42 255.988V252.808C330.42 252.368 330.06 252.008 329.62 252.008C329.18 252.008 328.82 252.368 328.82 252.808V255.988C328.82 256.428 329.18 256.788 329.62 256.788ZM329.62 248.828C330.06 248.828 330.42 248.468 330.42 248.028V244.848C330.42 244.408 330.06 244.048 329.62 244.048C329.18 244.048 328.82 244.408 328.82 244.848V248.028C328.82 248.468 329.18 248.828 329.62 248.828ZM329.62 240.868C330.06 240.868 330.42 240.508 330.42 240.068V236.888C330.42 236.448 330.06 236.088 329.62 236.088C329.18 236.088 328.82 236.448 328.82 236.888V240.068C328.82 240.508 329.18 240.868 329.62 240.868ZM329.62 232.908C330.06 232.908 330.42 232.548 330.42 232.108V228.928C330.42 228.488 330.06 228.128 329.62 228.128C329.18 228.128 328.82 228.488 328.82 228.928V232.108C328.82 232.548 329.18 232.908 329.62 232.908ZM329.62 224.938C330.06 224.938 330.42 224.578 330.42 224.138V220.958C330.42 220.518 330.06 220.158 329.62 220.158C329.18 220.158 328.82 220.518 328.82 220.958V224.138C328.82 224.588 329.18 224.938 329.62 224.938ZM329.62 216.978C330.06 216.978 330.42 216.618 330.42 216.178V212.998C330.42 212.558 330.06 212.198 329.62 212.198C329.18 212.198 328.82 212.558 328.82 212.998V216.178C328.82 216.628 329.18 216.978 329.62 216.978ZM329.62 209.018C330.06 209.018 330.42 208.658 330.42 208.218V205.038C330.42 204.598 330.06 204.238 329.62 204.238C329.18 204.238 328.82 204.598 328.82 205.038V208.218C328.82 208.668 329.18 209.018 329.62 209.018ZM329.62 201.058C330.06 201.058 330.42 200.698 330.42 200.258V197.078C330.42 196.638 330.06 196.278 329.62 196.278C329.18 196.278 328.82 196.638 328.82 197.078V200.258C328.82 200.698 329.18 201.058 329.62 201.058ZM329.62 193.098C330.06 193.098 330.42 192.738 330.42 192.298V189.118C330.42 188.678 330.06 188.318 329.62 188.318C329.18 188.318 328.82 188.678 328.82 189.118V192.298C328.82 192.738 329.18 193.098 329.62 193.098ZM329.62 185.138C330.06 185.138 330.42 184.778 330.42 184.338V181.158C330.42 180.718 330.06 180.358 329.62 180.358C329.18 180.358 328.82 180.718 328.82 181.158V184.338C328.82 184.778 329.18 185.138 329.62 185.138ZM329.62 177.178C330.06 177.178 330.42 176.818 330.42 176.378V173.198C330.42 172.758 330.06 172.398 329.62 172.398C329.18 172.398 328.82 172.758 328.82 173.198V176.378C328.82 176.818 329.18 177.178 329.62 177.178ZM329.62 169.208C330.06 169.208 330.42 168.848 330.42 168.408V165.228C330.42 164.788 330.06 164.428 329.62 164.428C329.18 164.428 328.82 164.788 328.82 165.228V168.408C328.82 168.858 329.18 169.208 329.62 169.208Z" fill="#A5E3FD"/>
<path d="M397.54 319.958C397.98 319.958 398.34 319.598 398.34 319.158V315.978C398.34 315.538 397.98 315.178 397.54 315.178C397.1 315.178 396.74 315.538 396.74 315.978V319.158C396.75 319.598 397.1 319.958 397.54 319.958ZM397.54 311.998C397.98 311.998 398.34 311.638 398.34 311.198V308.018C398.34 307.578 397.98 307.218 397.54 307.218C397.1 307.218 396.74 307.578 396.74 308.018V311.198C396.75 311.638 397.1 311.998 397.54 311.998ZM397.54 304.038C397.98 304.038 398.34 303.678 398.34 303.238V300.058C398.34 299.618 397.98 299.258 397.54 299.258C397.1 299.258 396.74 299.618 396.74 300.058V303.238C396.75 303.678 397.1 304.038 397.54 304.038ZM397.54 296.078C397.98 296.078 398.34 295.718 398.34 295.278V292.098C398.34 291.658 397.98 291.298 397.54 291.298C397.1 291.298 396.74 291.658 396.74 292.098V295.278C396.75 295.718 397.1 296.078 397.54 296.078ZM397.54 288.108C397.98 288.108 398.34 287.748 398.34 287.308V284.128C398.34 283.688 397.98 283.328 397.54 283.328C397.1 283.328 396.74 283.688 396.74 284.128V287.308C396.75 287.758 397.1 288.108 397.54 288.108ZM397.54 280.148C397.98 280.148 398.34 279.788 398.34 279.348V276.168C398.34 275.728 397.98 275.368 397.54 275.368C397.1 275.368 396.74 275.728 396.74 276.168V279.348C396.75 279.798 397.1 280.148 397.54 280.148ZM397.54 272.188C397.98 272.188 398.34 271.828 398.34 271.388V268.208C398.34 267.768 397.98 267.408 397.54 267.408C397.1 267.408 396.74 267.768 396.74 268.208V271.388C396.75 271.838 397.1 272.188 397.54 272.188ZM397.54 264.228C397.98 264.228 398.34 263.868 398.34 263.428V260.248C398.34 259.808 397.98 259.448 397.54 259.448C397.1 259.448 396.74 259.808 396.74 260.248V263.428C396.75 263.868 397.1 264.228 397.54 264.228ZM397.54 256.268C397.98 256.268 398.34 255.908 398.34 255.468V252.288C398.34 251.848 397.98 251.488 397.54 251.488C397.1 251.488 396.74 251.848 396.74 252.288V255.468C396.75 255.908 397.1 256.268 397.54 256.268ZM397.54 248.308C397.98 248.308 398.34 247.948 398.34 247.508V244.328C398.34 243.888 397.98 243.528 397.54 243.528C397.1 243.528 396.74 243.888 396.74 244.328V247.508C396.75 247.948 397.1 248.308 397.54 248.308Z" fill="#A5E3FD"/>
<path d="M363.68 299.608C364.12 299.608 364.48 299.248 364.48 298.808V295.628C364.48 295.188 364.12 294.828 363.68 294.828C363.24 294.828 362.88 295.188 362.88 295.628V298.808C362.89 299.248 363.24 299.608 363.68 299.608ZM363.68 291.648C364.12 291.648 364.48 291.288 364.48 290.848V287.668C364.48 287.228 364.12 286.868 363.68 286.868C363.24 286.868 362.88 287.228 362.88 287.668V290.848C362.89 291.288 363.24 291.648 363.68 291.648ZM363.68 283.688C364.12 283.688 364.48 283.328 364.48 282.888V279.708C364.48 279.268 364.12 278.908 363.68 278.908C363.24 278.908 362.88 279.268 362.88 279.708V282.888C362.89 283.328 363.24 283.688 363.68 283.688ZM363.68 275.718C364.12 275.718 364.48 275.358 364.48 274.918V271.738C364.48 271.298 364.12 270.938 363.68 270.938C363.24 270.938 362.88 271.298 362.88 271.738V274.918C362.89 275.368 363.24 275.718 363.68 275.718ZM363.68 267.758C364.12 267.758 364.48 267.398 364.48 266.958V263.778C364.48 263.338 364.12 262.978 363.68 262.978C363.24 262.978 362.88 263.338 362.88 263.778V266.958C362.89 267.408 363.24 267.758 363.68 267.758ZM363.68 259.798C364.12 259.798 364.48 259.438 364.48 258.998V255.818C364.48 255.378 364.12 255.018 363.68 255.018C363.24 255.018 362.88 255.378 362.88 255.818V258.998C362.89 259.448 363.24 259.798 363.68 259.798ZM363.68 251.838C364.12 251.838 364.48 251.478 364.48 251.038V247.858C364.48 247.418 364.12 247.058 363.68 247.058C363.24 247.058 362.88 247.418 362.88 247.858V251.038C362.89 251.478 363.24 251.838 363.68 251.838ZM363.68 243.878C364.12 243.878 364.48 243.518 364.48 243.078V239.898C364.48 239.458 364.12 239.098 363.68 239.098C363.24 239.098 362.88 239.458 362.88 239.898V243.078C362.89 243.518 363.24 243.878 363.68 243.878ZM363.68 235.918C364.12 235.918 364.48 235.558 364.48 235.118V231.938C364.48 231.498 364.12 231.138 363.68 231.138C363.24 231.138 362.88 231.498 362.88 231.938V235.118C362.89 235.558 363.24 235.918 363.68 235.918ZM363.68 227.958C364.12 227.958 364.48 227.598 364.48 227.158V223.978C364.48 223.538 364.12 223.178 363.68 223.178C363.24 223.178 362.88 223.538 362.88 223.978V227.158C362.89 227.598 363.24 227.958 363.68 227.958ZM363.68 219.988C364.12 219.988 364.48 219.628 364.48 219.188V216.008C364.48 215.568 364.12 215.208 363.68 215.208C363.24 215.208 362.88 215.568 362.88 216.008V219.188C362.89 219.638 363.24 219.988 363.68 219.988ZM363.68 212.028C364.12 212.028 364.48 211.668 364.48 211.228V208.048C364.48 207.608 364.12 207.248 363.68 207.248C363.24 207.248 362.88 207.608 362.88 208.048V211.238C362.89 211.678 363.24 212.028 363.68 212.028ZM363.68 204.068C364.12 204.068 364.48 203.708 364.48 203.268V200.088C364.48 199.648 364.12 199.288 363.68 199.288C363.24 199.288 362.88 199.648 362.88 200.088V203.268C362.89 203.718 363.24 204.068 363.68 204.068ZM363.68 196.108C364.12 196.108 364.48 195.748 364.48 195.308V192.128C364.48 191.688 364.12 191.328 363.68 191.328C363.24 191.328 362.88 191.688 362.88 192.128V195.308C362.89 195.748 363.24 196.108 363.68 196.108Z" fill="#A5E3FD"/>
<path d="M295.761 261.418C296.201 261.418 296.561 261.058 296.561 260.618V257.438C296.561 256.998 296.201 256.638 295.761 256.638C295.321 256.638 294.961 256.998 294.961 257.438V260.618C294.961 261.058 295.321 261.418 295.761 261.418ZM295.761 253.458C296.201 253.458 296.561 253.098 296.561 252.658V249.478C296.561 249.038 296.201 248.678 295.761 248.678C295.321 248.678 294.961 249.038 294.961 249.478V252.658C294.961 253.098 295.321 253.458 295.761 253.458ZM295.761 245.498C296.201 245.498 296.561 245.138 296.561 244.698V241.518C296.561 241.078 296.201 240.718 295.761 240.718C295.321 240.718 294.961 241.078 294.961 241.518V244.698C294.961 245.138 295.321 245.498 295.761 245.498ZM295.761 237.528C296.201 237.528 296.561 237.168 296.561 236.728V233.548C296.561 233.108 296.201 232.748 295.761 232.748C295.321 232.748 294.961 233.108 294.961 233.548V236.728C294.961 237.178 295.321 237.528 295.761 237.528ZM295.761 229.568C296.201 229.568 296.561 229.208 296.561 228.768V225.588C296.561 225.148 296.201 224.788 295.761 224.788C295.321 224.788 294.961 225.148 294.961 225.588V228.768C294.961 229.218 295.321 229.568 295.761 229.568ZM295.761 221.608C296.201 221.608 296.561 221.248 296.561 220.808V217.628C296.561 217.188 296.201 216.828 295.761 216.828C295.321 216.828 294.961 217.188 294.961 217.628V220.808C294.961 221.258 295.321 221.608 295.761 221.608ZM295.761 213.648C296.201 213.648 296.561 213.288 296.561 212.848V209.668C296.561 209.228 296.201 208.868 295.761 208.868C295.321 208.868 294.961 209.228 294.961 209.668V212.848C294.961 213.288 295.321 213.648 295.761 213.648ZM295.761 205.688C296.201 205.688 296.561 205.328 296.561 204.888V201.708C296.561 201.268 296.201 200.908 295.761 200.908C295.321 200.908 294.961 201.268 294.961 201.708V204.888C294.961 205.328 295.321 205.688 295.761 205.688ZM295.761 197.728C296.201 197.728 296.561 197.368 296.561 196.928V193.748C296.561 193.308 296.201 192.948 295.761 192.948C295.321 192.948 294.961 193.308 294.961 193.748V196.928C294.961 197.368 295.321 197.728 295.761 197.728ZM295.761 189.768C296.201 189.768 296.561 189.408 296.561 188.968V185.788C296.561 185.348 296.201 184.988 295.761 184.988C295.321 184.988 294.961 185.348 294.961 185.788V188.968C294.961 189.408 295.321 189.768 295.761 189.768ZM295.761 181.798C296.201 181.798 296.561 181.438 296.561 180.998V177.818C296.561 177.378 296.201 177.018 295.761 177.018C295.321 177.018 294.961 177.378 294.961 177.818V180.998C294.961 181.448 295.321 181.798 295.761 181.798ZM295.761 173.838C296.201 173.838 296.561 173.478 296.561 173.038V169.858C296.561 169.418 296.201 169.058 295.761 169.058C295.321 169.058 294.961 169.418 294.961 169.858V173.038C294.961 173.488 295.321 173.838 295.761 173.838ZM295.761 165.878C296.201 165.878 296.561 165.518 296.561 165.078V161.898C296.561 161.458 296.201 161.098 295.761 161.098C295.321 161.098 294.961 161.458 294.961 161.898V165.078C294.961 165.528 295.321 165.878 295.761 165.878ZM295.761 157.918C296.201 157.918 296.561 157.558 296.561 157.118V153.938C296.561 153.498 296.201 153.138 295.761 153.138C295.321 153.138 294.961 153.498 294.961 153.938V157.118C294.961 157.558 295.321 157.918 295.761 157.918ZM295.761 149.958C296.201 149.958 296.561 149.598 296.561 149.158V145.978C296.561 145.538 296.201 145.178 295.761 145.178C295.321 145.178 294.961 145.538 294.961 145.978V149.158C294.961 149.598 295.321 149.958 295.761 149.958ZM295.761 141.998C296.201 141.998 296.561 141.638 296.561 141.198V138.018C296.561 137.578 296.201 137.218 295.761 137.218C295.321 137.218 294.961 137.578 294.961 138.018V141.198C294.961 141.638 295.321 141.998 295.761 141.998ZM295.761 134.038C296.201 134.038 296.561 133.678 296.561 133.238V130.058C296.561 129.618 296.201 129.258 295.761 129.258C295.321 129.258 294.961 129.618 294.961 130.058V133.238C294.961 133.678 295.321 134.038 295.761 134.038ZM295.761 126.068C296.201 126.068 296.561 125.708 296.561 125.268V122.088C296.561 121.648 296.201 121.288 295.761 121.288C295.321 121.288 294.961 121.648 294.961 122.088V125.268C294.961 125.718 295.321 126.068 295.761 126.068ZM295.761 118.108C296.201 118.108 296.561 117.748 296.561 117.308V114.128C296.561 113.688 296.201 113.328 295.761 113.328C295.321 113.328 294.961 113.688 294.961 114.128V117.308C294.961 117.758 295.321 118.108 295.761 118.108ZM295.761 110.148C296.201 110.148 296.561 109.788 296.561 109.348V106.168C296.561 105.728 296.201 105.368 295.761 105.368C295.321 105.368 294.961 105.728 294.961 106.168V109.348C294.961 109.798 295.321 110.148 295.761 110.148Z" fill="#A5E3FD"/>
<path d="M261.899 241.788C262.339 241.788 262.699 241.428 262.699 240.988V237.808C262.699 237.368 262.339 237.008 261.899 237.008C261.459 237.008 261.099 237.368 261.099 237.808V240.988C261.099 241.438 261.459 241.788 261.899 241.788ZM261.899 233.828C262.339 233.828 262.699 233.468 262.699 233.028V229.848C262.699 229.408 262.339 229.048 261.899 229.048C261.459 229.048 261.099 229.408 261.099 229.848V233.028C261.099 233.478 261.459 233.828 261.899 233.828ZM261.899 225.868C262.339 225.868 262.699 225.508 262.699 225.068V221.888C262.699 221.448 262.339 221.088 261.899 221.088C261.459 221.088 261.099 221.448 261.099 221.888V225.068C261.099 225.518 261.459 225.868 261.899 225.868ZM261.899 217.908C262.339 217.908 262.699 217.548 262.699 217.108V213.928C262.699 213.488 262.339 213.128 261.899 213.128C261.459 213.128 261.099 213.488 261.099 213.928V217.108C261.099 217.548 261.459 217.908 261.899 217.908ZM261.899 209.948C262.339 209.948 262.699 209.588 262.699 209.148V205.968C262.699 205.528 262.339 205.168 261.899 205.168C261.459 205.168 261.099 205.528 261.099 205.968V209.148C261.099 209.588 261.459 209.948 261.899 209.948ZM261.899 201.988C262.339 201.988 262.699 201.628 262.699 201.188V198.008C262.699 197.568 262.339 197.208 261.899 197.208C261.459 197.208 261.099 197.568 261.099 198.008V201.188C261.099 201.628 261.459 201.988 261.899 201.988ZM261.899 194.028C262.339 194.028 262.699 193.668 262.699 193.228V190.048C262.699 189.608 262.339 189.248 261.899 189.248C261.459 189.248 261.099 189.608 261.099 190.048V193.228C261.099 193.668 261.459 194.028 261.899 194.028ZM261.899 186.068C262.339 186.068 262.699 185.708 262.699 185.268V182.088C262.699 181.648 262.339 181.288 261.899 181.288C261.459 181.288 261.099 181.648 261.099 182.088V185.268C261.099 185.708 261.459 186.068 261.899 186.068ZM261.899 178.098C262.339 178.098 262.699 177.738 262.699 177.298V174.118C262.699 173.678 262.339 173.318 261.899 173.318C261.459 173.318 261.099 173.678 261.099 174.118V177.298C261.099 177.748 261.459 178.098 261.899 178.098ZM261.899 170.138C262.339 170.138 262.699 169.778 262.699 169.338V166.158C262.699 165.718 262.339 165.358 261.899 165.358C261.459 165.358 261.099 165.718 261.099 166.158V169.338C261.099 169.788 261.459 170.138 261.899 170.138ZM261.899 162.178C262.339 162.178 262.699 161.818 262.699 161.378V158.198C262.699 157.758 262.339 157.398 261.899 157.398C261.459 157.398 261.099 157.758 261.099 158.198V161.378C261.099 161.818 261.459 162.178 261.899 162.178ZM261.899 154.218C262.339 154.218 262.699 153.858 262.699 153.418V150.238C262.699 149.798 262.339 149.438 261.899 149.438C261.459 149.438 261.099 149.798 261.099 150.238V153.418C261.099 153.858 261.459 154.218 261.899 154.218ZM261.899 146.258C262.339 146.258 262.699 145.898 262.699 145.458V142.278C262.699 141.838 262.339 141.478 261.899 141.478C261.459 141.478 261.099 141.838 261.099 142.278V145.458C261.099 145.898 261.459 146.258 261.899 146.258ZM261.899 138.298C262.339 138.298 262.699 137.938 262.699 137.498V134.318C262.699 133.878 262.339 133.518 261.899 133.518C261.459 133.518 261.099 133.878 261.099 134.318V137.498C261.099 137.938 261.459 138.298 261.899 138.298ZM261.899 130.338C262.339 130.338 262.699 129.978 262.699 129.538V126.358C262.699 125.918 262.339 125.558 261.899 125.558C261.459 125.558 261.099 125.918 261.099 126.358V129.538C261.099 129.978 261.459 130.338 261.899 130.338ZM261.899 122.368C262.339 122.368 262.699 122.008 262.699 121.568V118.388C262.699 117.948 262.339 117.588 261.899 117.588C261.459 117.588 261.099 117.948 261.099 118.388V121.568C261.099 122.018 261.459 122.368 261.899 122.368ZM261.899 114.408C262.339 114.408 262.699 114.048 262.699 113.608V110.428C262.699 109.988 262.339 109.628 261.899 109.628C261.459 109.628 261.099 109.988 261.099 110.428V113.608C261.099 114.058 261.459 114.408 261.899 114.408ZM261.899 106.448C262.339 106.448 262.699 106.088 262.699 105.648V102.468C262.699 102.028 262.339 101.668 261.899 101.668C261.459 101.668 261.099 102.028 261.099 102.468V105.648C261.099 106.098 261.459 106.448 261.899 106.448ZM261.899 98.4882C262.339 98.4882 262.699 98.1281 262.699 97.6881V94.5082C262.699 94.0682 262.339 93.7082 261.899 93.7082C261.459 93.7082 261.099 94.0682 261.099 94.5082V97.6881C261.099 98.1281 261.459 98.4882 261.899 98.4882ZM261.899 90.5281C262.339 90.5281 262.699 90.1682 262.699 89.7282V86.5481C262.699 86.1081 262.339 85.7481 261.899 85.7481C261.459 85.7481 261.099 86.1081 261.099 86.5481V89.7282C261.099 90.1682 261.459 90.5281 261.899 90.5281ZM261.899 82.5682C262.339 82.5682 262.699 82.2082 262.699 81.7682V78.5882C262.699 78.1482 262.339 77.7882 261.899 77.7882C261.459 77.7882 261.099 78.1482 261.099 78.5882V81.7682C261.099 82.2082 261.459 82.5682 261.899 82.5682ZM261.899 74.6081C262.339 74.6081 262.699 74.2482 262.699 73.8082V70.6282C262.699 70.1882 262.339 69.8281 261.899 69.8281C261.459 69.8281 261.099 70.1882 261.099 70.6282V73.8082C261.099 74.2482 261.459 74.6081 261.899 74.6081ZM261.899 66.6382C262.339 66.6382 262.699 66.2782 262.699 65.8382V62.6581C262.699 62.2181 262.339 61.8582 261.899 61.8582C261.459 61.8582 261.099 62.2181 261.099 62.6581V65.8382C261.099 66.2882 261.459 66.6382 261.899 66.6382Z" fill="#A5E3FD"/>
<path d="M228.04 221.328C228.48 221.328 228.84 220.968 228.84 220.528V217.348C228.84 216.908 228.48 216.548 228.04 216.548C227.6 216.548 227.24 216.908 227.24 217.348V220.528C227.24 220.968 227.6 221.328 228.04 221.328ZM228.04 213.368C228.48 213.368 228.84 213.008 228.84 212.568V209.388C228.84 208.948 228.48 208.588 228.04 208.588C227.6 208.588 227.24 208.948 227.24 209.388V212.568C227.24 213.008 227.6 213.368 228.04 213.368ZM228.04 205.408C228.48 205.408 228.84 205.048 228.84 204.608V201.428C228.84 200.988 228.48 200.628 228.04 200.628C227.6 200.628 227.24 200.988 227.24 201.428V204.608C227.24 205.048 227.6 205.408 228.04 205.408ZM228.04 197.438C228.48 197.438 228.84 197.078 228.84 196.638V193.458C228.84 193.018 228.48 192.658 228.04 192.658C227.6 192.658 227.24 193.018 227.24 193.458V196.638C227.24 197.088 227.6 197.438 228.04 197.438ZM228.04 189.478C228.48 189.478 228.84 189.118 228.84 188.678V185.498C228.84 185.058 228.48 184.698 228.04 184.698C227.6 184.698 227.24 185.058 227.24 185.498V188.678C227.24 189.128 227.6 189.478 228.04 189.478ZM228.04 181.518C228.48 181.518 228.84 181.158 228.84 180.718V177.538C228.84 177.098 228.48 176.738 228.04 176.738C227.6 176.738 227.24 177.098 227.24 177.538V180.718C227.24 181.168 227.6 181.518 228.04 181.518ZM228.04 173.558C228.48 173.558 228.84 173.198 228.84 172.758V169.578C228.84 169.138 228.48 168.778 228.04 168.778C227.6 168.778 227.24 169.138 227.24 169.578V172.758C227.24 173.198 227.6 173.558 228.04 173.558ZM228.04 165.598C228.48 165.598 228.84 165.238 228.84 164.798V161.618C228.84 161.178 228.48 160.818 228.04 160.818C227.6 160.818 227.24 161.178 227.24 161.618V164.798C227.24 165.238 227.6 165.598 228.04 165.598ZM228.04 157.638C228.48 157.638 228.84 157.278 228.84 156.838V153.658C228.84 153.218 228.48 152.858 228.04 152.858C227.6 152.858 227.24 153.218 227.24 153.658V156.838C227.24 157.278 227.6 157.638 228.04 157.638ZM228.04 149.678C228.48 149.678 228.84 149.318 228.84 148.878V145.698C228.84 145.258 228.48 144.898 228.04 144.898C227.6 144.898 227.24 145.258 227.24 145.698V148.878C227.24 149.318 227.6 149.678 228.04 149.678ZM228.04 141.708C228.48 141.708 228.84 141.348 228.84 140.908V137.728C228.84 137.288 228.48 136.928 228.04 136.928C227.6 136.928 227.24 137.288 227.24 137.728V140.908C227.24 141.358 227.6 141.708 228.04 141.708ZM228.04 133.748C228.48 133.748 228.84 133.388 228.84 132.948V129.768C228.84 129.328 228.48 128.968 228.04 128.968C227.6 128.968 227.24 129.328 227.24 129.768V132.948C227.24 133.398 227.6 133.748 228.04 133.748ZM228.04 125.788C228.48 125.788 228.84 125.428 228.84 124.988V121.808C228.84 121.368 228.48 121.008 228.04 121.008C227.6 121.008 227.24 121.368 227.24 121.808V124.988C227.24 125.438 227.6 125.788 228.04 125.788ZM228.04 117.828C228.48 117.828 228.84 117.468 228.84 117.028V113.848C228.84 113.408 228.48 113.048 228.04 113.048C227.6 113.048 227.24 113.408 227.24 113.848V117.028C227.24 117.468 227.6 117.828 228.04 117.828ZM228.04 109.868C228.48 109.868 228.84 109.508 228.84 109.068V105.888C228.84 105.448 228.48 105.088 228.04 105.088C227.6 105.088 227.24 105.448 227.24 105.888V109.068C227.24 109.508 227.6 109.868 228.04 109.868ZM228.04 101.908C228.48 101.908 228.84 101.548 228.84 101.108V97.9282C228.84 97.4882 228.48 97.1282 228.04 97.1282C227.6 97.1282 227.24 97.4882 227.24 97.9282V101.108C227.24 101.548 227.6 101.908 228.04 101.908ZM228.04 93.9482C228.48 93.9482 228.84 93.5882 228.84 93.1482V89.9682C228.84 89.5282 228.48 89.1682 228.04 89.1682C227.6 89.1682 227.24 89.5282 227.24 89.9682V93.1482C227.24 93.5882 227.6 93.9482 228.04 93.9482ZM228.04 85.9782C228.48 85.9782 228.84 85.6182 228.84 85.1782V81.9982C228.84 81.5582 228.48 81.1982 228.04 81.1982C227.6 81.1982 227.24 81.5582 227.24 81.9982V85.1782C227.24 85.6282 227.6 85.9782 228.04 85.9782ZM228.04 78.0182C228.48 78.0182 228.84 77.6582 228.84 77.2182V76.9682C228.84 76.5282 228.48 76.1682 228.04 76.1682C227.6 76.1682 227.24 76.5282 227.24 76.9682V77.2182C227.24 77.6682 227.6 78.0182 228.04 78.0182Z" fill="#A5E3FD"/>
<path d="M166.18 183.238C166.62 183.238 166.98 182.878 166.98 182.438V179.258C166.98 178.818 166.62 178.458 166.18 178.458C165.74 178.458 165.38 178.818 165.38 179.258V182.438C165.38 182.888 165.74 183.238 166.18 183.238ZM166.18 175.278C166.62 175.278 166.98 174.918 166.98 174.478V171.298C166.98 170.858 166.62 170.498 166.18 170.498C165.74 170.498 165.38 170.858 165.38 171.298V174.478C165.38 174.918 165.74 175.278 166.18 175.278ZM166.18 167.318C166.62 167.318 166.98 166.958 166.98 166.518V163.338C166.98 162.898 166.62 162.538 166.18 162.538C165.74 162.538 165.38 162.898 165.38 163.338V166.518C165.38 166.958 165.74 167.318 166.18 167.318ZM166.18 159.358C166.62 159.358 166.98 158.998 166.98 158.558V155.378C166.98 154.938 166.62 154.578 166.18 154.578C165.74 154.578 165.38 154.938 165.38 155.378V158.558C165.38 158.998 165.74 159.358 166.18 159.358ZM166.18 151.398C166.62 151.398 166.98 151.038 166.98 150.598V147.418C166.98 146.978 166.62 146.618 166.18 146.618C165.74 146.618 165.38 146.978 165.38 147.418V150.598C165.38 151.038 165.74 151.398 166.18 151.398ZM166.18 143.428C166.62 143.428 166.98 143.068 166.98 142.628V139.448C166.98 139.008 166.62 138.648 166.18 138.648C165.74 138.648 165.38 139.008 165.38 139.448V142.628C165.38 143.078 165.74 143.428 166.18 143.428ZM166.18 135.468C166.62 135.468 166.98 135.108 166.98 134.668V131.488C166.98 131.048 166.62 130.688 166.18 130.688C165.74 130.688 165.38 131.048 165.38 131.488V134.668C165.38 135.118 165.74 135.468 166.18 135.468ZM166.18 127.508C166.62 127.508 166.98 127.148 166.98 126.708V123.528C166.98 123.088 166.62 122.728 166.18 122.728C165.74 122.728 165.38 123.088 165.38 123.528V126.708C165.38 127.158 165.74 127.508 166.18 127.508ZM166.18 119.548C166.62 119.548 166.98 119.188 166.98 118.748V115.568C166.98 115.128 166.62 114.768 166.18 114.768C165.74 114.768 165.38 115.128 165.38 115.568V118.748C165.38 119.188 165.74 119.548 166.18 119.548ZM166.18 111.588C166.62 111.588 166.98 111.228 166.98 110.788V107.608C166.98 107.168 166.62 106.808 166.18 106.808C165.74 106.808 165.38 107.168 165.38 107.608V110.788C165.38 111.228 165.74 111.588 166.18 111.588ZM166.18 103.628C166.62 103.628 166.98 103.268 166.98 102.828V99.6485C166.98 99.2085 166.62 98.8485 166.18 98.8485C165.74 98.8485 165.38 99.2085 165.38 99.6485V102.828C165.38 103.268 165.74 103.628 166.18 103.628ZM166.18 95.6685C166.62 95.6685 166.98 95.3085 166.98 94.8685V91.6885C166.98 91.2485 166.62 90.8885 166.18 90.8885C165.74 90.8885 165.38 91.2485 165.38 91.6885V94.8685C165.38 95.3085 165.74 95.6685 166.18 95.6685ZM166.18 87.7085C166.62 87.7085 166.98 87.3485 166.98 86.9085V83.7285C166.98 83.2885 166.62 82.9285 166.18 82.9285C165.74 82.9285 165.38 83.2885 165.38 83.7285V86.9085C165.38 87.3485 165.74 87.7085 166.18 87.7085Z" fill="#A5E3FD"/>
<path d="M194.18 202.088C194.62 202.088 194.98 201.728 194.98 201.288V198.108C194.98 197.668 194.62 197.308 194.18 197.308C193.74 197.308 193.38 197.668 193.38 198.108V201.288C193.38 201.728 193.74 202.088 194.18 202.088ZM194.18 194.128C194.62 194.128 194.98 193.768 194.98 193.328V190.148C194.98 189.708 194.62 189.348 194.18 189.348C193.74 189.348 193.38 189.708 193.38 190.148V193.328C193.38 193.768 193.74 194.128 194.18 194.128ZM194.18 186.158C194.62 186.158 194.98 185.798 194.98 185.358V182.178C194.98 181.738 194.62 181.378 194.18 181.378C193.74 181.378 193.38 181.738 193.38 182.178V185.358C193.38 185.808 193.74 186.158 194.18 186.158ZM194.18 178.198C194.62 178.198 194.98 177.838 194.98 177.398V174.218C194.98 173.778 194.62 173.418 194.18 173.418C193.74 173.418 193.38 173.778 193.38 174.218V177.398C193.38 177.848 193.74 178.198 194.18 178.198ZM194.18 170.238C194.62 170.238 194.98 169.878 194.98 169.438V166.258C194.98 165.818 194.62 165.458 194.18 165.458C193.74 165.458 193.38 165.818 193.38 166.258V169.438C193.38 169.888 193.74 170.238 194.18 170.238ZM194.18 162.278C194.62 162.278 194.98 161.918 194.98 161.478V158.298C194.98 157.858 194.62 157.498 194.18 157.498C193.74 157.498 193.38 157.858 193.38 158.298V161.478C193.38 161.918 193.74 162.278 194.18 162.278ZM194.18 154.318C194.62 154.318 194.98 153.958 194.98 153.518V150.338C194.98 149.898 194.62 149.538 194.18 149.538C193.74 149.538 193.38 149.898 193.38 150.338V153.518C193.38 153.958 193.74 154.318 194.18 154.318ZM194.18 146.358C194.62 146.358 194.98 145.998 194.98 145.558V142.378C194.98 141.938 194.62 141.578 194.18 141.578C193.74 141.578 193.38 141.938 193.38 142.378V145.558C193.38 145.998 193.74 146.358 194.18 146.358ZM194.18 138.398C194.62 138.398 194.98 138.038 194.98 137.598V134.418C194.98 133.978 194.62 133.618 194.18 133.618C193.74 133.618 193.38 133.978 193.38 134.418V137.598C193.38 138.038 193.74 138.398 194.18 138.398ZM194.18 130.428C194.62 130.428 194.98 130.068 194.98 129.628V126.448C194.98 126.008 194.62 125.648 194.18 125.648C193.74 125.648 193.38 126.008 193.38 126.448V129.628C193.38 130.078 193.74 130.428 194.18 130.428ZM194.18 122.468C194.62 122.468 194.98 122.108 194.98 121.668V118.488C194.98 118.048 194.62 117.688 194.18 117.688C193.74 117.688 193.38 118.048 193.38 118.488V121.668C193.38 122.118 193.74 122.468 194.18 122.468ZM194.18 114.508C194.62 114.508 194.98 114.148 194.98 113.708V110.528C194.98 110.088 194.62 109.728 194.18 109.728C193.74 109.728 193.38 110.088 193.38 110.528V113.708C193.38 114.158 193.74 114.508 194.18 114.508ZM194.18 106.548C194.62 106.548 194.98 106.188 194.98 105.748V102.568C194.98 102.128 194.62 101.768 194.18 101.768C193.74 101.768 193.38 102.128 193.38 102.568V105.748C193.38 106.188 193.74 106.548 194.18 106.548ZM194.18 98.5882C194.62 98.5882 194.98 98.2282 194.98 97.7882V94.6082C194.98 94.1682 194.62 93.8082 194.18 93.8082C193.74 93.8082 193.38 94.1682 193.38 94.6082V97.7882C193.38 98.2282 193.74 98.5882 194.18 98.5882ZM194.18 90.6282C194.62 90.6282 194.98 90.2682 194.98 89.8282V86.6482C194.98 86.2082 194.62 85.8482 194.18 85.8482C193.74 85.8482 193.38 86.2082 193.38 86.6482V89.8282C193.38 90.2682 193.74 90.6282 194.18 90.6282ZM194.18 82.6682C194.62 82.6682 194.98 82.3082 194.98 81.8682V78.6882C194.98 78.2482 194.62 77.8882 194.18 77.8882C193.74 77.8882 193.38 78.2482 193.38 78.6882V81.8682C193.38 82.3082 193.74 82.6682 194.18 82.6682ZM194.18 74.7082C194.62 74.7082 194.98 74.3482 194.98 73.9082V70.7282C194.98 70.2882 194.62 69.9282 194.18 69.9282C193.74 69.9282 193.38 70.2882 193.38 70.7282V73.9082C193.38 74.3482 193.74 74.7082 194.18 74.7082Z" fill="#A5E3FD"/>
</g>
<path d="M428.821 281.448L430.141 280.558L363.581 183.978L330.081 154.708L296.451 94.9178L262.181 56.7178L227.221 72.3578L194.881 62.0878H194.751L163.671 74.6678L163.711 76.2578L194.661 63.6878L227.311 74.0578L261.771 58.6478L295.201 95.9178L328.831 155.728L328.931 155.818L362.461 185.108L428.821 281.448Z" fill="url(#paint2_linear_195_1378)"/>
<path d="M166.473 163.676L144.472 185.877C143.555 186.803 143.753 188.344 144.876 189.007L428.496 356.465C429.155 356.854 429.978 356.833 430.616 356.411L451.133 342.846C452.358 342.036 452.321 340.224 451.063 339.465L430.573 327.101" stroke="#A5E3FD"/>
<path d="M252.897 317.886L219.42 337.492C218.8 337.855 218.034 337.858 217.412 337.499L3.84144 214.55C2.42113 213.732 2.53317 211.647 4.0329 210.986L38.0136 196.015C38.5862 195.762 39.2439 195.793 39.7909 196.096L252.857 314.412C254.211 315.164 254.233 317.104 252.897 317.886Z" stroke="#A5E3FD"/>
<mask id="mask1_195_1378" style="mask-type:alpha" maskUnits="userSpaceOnUse" x="12" y="43" width="60" height="184">
<path d="M71.709 43.2444H12.6518V226.97H71.709V43.2444Z" fill="url(#paint3_linear_195_1378)"/>
</mask>
<g mask="url(#mask1_195_1378)">
<g opacity="0.95">
<path opacity="0.95" d="M39.8746 117.961L23.3724 127.512L39.8746 137.039L56.3887 127.5L39.8746 117.961Z" fill="#5FABDF"/>
<g opacity="0.95">
<path opacity="0.95" d="M23.361 214.4L39.875 223.939V137.038L23.361 127.5V214.4Z" fill="url(#paint4_linear_195_1378)"/>
<path opacity="0.95" d="M39.8746 223.939L56.3887 214.4V127.5L39.8746 137.038V223.939Z" fill="url(#paint5_linear_195_1378)"/>
</g>
</g>
<path d="M56.3887 127.5L39.9566 136.348L23.3607 127.5L39.3714 137.401L39.8746 223.939L40.6588 137.284L56.3887 127.5Z" fill="#BDFCFF"/>
</g>
<mask id="mask2_195_1378" style="mask-type:alpha" maskUnits="userSpaceOnUse" x="42" y="60" width="60" height="185">
<path d="M101.459 60.355H42.3901V244.081H101.459V60.355Z" fill="url(#paint6_linear_195_1378)"/>
</mask>
<g mask="url(#mask2_195_1378)">
<g opacity="0.95">
<path opacity="0.95" d="M69.6149 89.9072L53.1126 99.4458L69.6266 108.984L86.1289 99.4458L69.6149 89.9072Z" fill="#5FABDF"/>
<g opacity="0.95">
<path opacity="0.95" d="M53.1012 231.511L69.6152 241.05V108.984L53.1012 99.4458V231.511Z" fill="url(#paint7_linear_195_1378)"/>
<path opacity="0.95" d="M69.6149 241.05L86.1289 231.511V99.4458L69.6149 108.984V241.05Z" fill="url(#paint8_linear_195_1378)"/>
</g>
</g>
<path d="M86.1289 99.4458L69.6968 108.294L53.1009 99.4458L69.1116 109.335L69.6149 241.05L70.399 109.23L86.1289 99.4458Z" fill="#BDFCFF"/>
</g>
<mask id="mask3_195_1378" style="mask-type:alpha" maskUnits="userSpaceOnUse" x="76" y="36" width="45" height="231">
<path d="M120.666 36.0469H76.578V266.506H120.666V36.0469Z" fill="url(#paint9_linear_195_1378)"/>
</mask>
<g mask="url(#mask3_195_1378)">
<g opacity="0.95">
<path opacity="0.95" d="M99.025 41.4185L82.511 50.9687L99.025 60.4956L115.527 50.957L99.025 41.4185Z" fill="url(#paint10_linear_195_1378)"/>
<g opacity="0.95">
<path opacity="0.95" d="M82.4997 248.692L99.0137 258.23V60.4951L82.4997 50.9565V248.692Z" fill="url(#paint11_linear_195_1378)"/>
<path opacity="0.95" d="M82.4997 248.692L99.0137 258.23V60.4951L82.4997 50.9565V248.692Z" fill="url(#paint12_linear_195_1378)"/>
<path opacity="0.95" d="M99.0133 258.23L115.527 248.692V50.9565L99.0133 60.4951V258.23Z" fill="url(#paint13_linear_195_1378)"/>
</g>
</g>
<path d="M115.527 50.9568L99.0953 59.8048L82.4993 50.9568L98.5101 60.8582L99.0133 258.23L99.7975 60.7411L115.527 50.9568Z" fill="#BDFCFF"/>
</g>
<mask id="mask4_195_1378" style="mask-type:alpha" maskUnits="userSpaceOnUse" x="100" y="76" width="60" height="202">
<path d="M159.826 76.1204H100.757V277.472H159.826V76.1204Z" fill="url(#paint14_linear_195_1378)"/>
</mask>
<g mask="url(#mask4_195_1378)">
<g opacity="0.95">
<path opacity="0.95" d="M127.98 85.6829L111.478 95.2214L127.98 104.76L144.494 95.2214L127.98 85.6829Z" fill="#5FABDF"/>
<g opacity="0.95">
<path opacity="0.95" d="M111.466 264.903L127.98 274.441V104.748L111.466 95.2214V264.903Z" fill="url(#paint15_linear_195_1378)"/>
<path opacity="0.95" d="M127.98 274.441L144.494 264.903V95.2214L127.98 104.748V274.441Z" fill="url(#paint16_linear_195_1378)"/>
</g>
</g>
<path d="M144.494 95.2212L128.062 104.069L111.466 95.2212L127.477 105.111L127.98 274.441L128.764 104.994L144.494 95.2212Z" fill="#BDFCFF"/>
</g>
<mask id="mask5_195_1378" style="mask-type:alpha" maskUnits="userSpaceOnUse" x="130" y="110" width="60" height="185">
<path d="M189.564 110.869H130.496V294.595H189.564V110.869Z" fill="url(#paint17_linear_195_1378)"/>
</mask>
<g mask="url(#mask5_195_1378)">
<g opacity="0.95">
<path opacity="0.95" d="M157.732 153.575L141.218 163.114L157.732 172.653L174.234 163.114L157.732 153.575Z" fill="#5FABDF"/>
<g opacity="0.95">
<path opacity="0.95" d="M141.207 282.024L157.721 291.563V172.641L141.207 163.114V282.024Z" fill="url(#paint18_linear_195_1378)"/>
<path opacity="0.95" d="M157.72 291.563L174.234 282.024V163.114L157.72 172.641V291.563Z" fill="url(#paint19_linear_195_1378)"/>
</g>
</g>
<path d="M174.234 163.114L157.802 171.962L141.206 163.114L157.217 173.004L157.72 291.563L158.505 172.887L174.234 163.114Z" fill="#BDFCFF"/>
</g>
<mask id="mask6_195_1378" style="mask-type:alpha" maskUnits="userSpaceOnUse" x="160" y="127" width="60" height="185">
<path d="M219.387 127.64H160.318V311.366H219.387V127.64Z" fill="url(#paint20_linear_195_1378)"/>
</mask>
<g mask="url(#mask6_195_1378)">
<g opacity="0.95">
<path opacity="0.95" d="M187.543 193.766L171.04 203.305L187.543 212.843L204.057 203.305L187.543 193.766Z" fill="#5FABDF"/>
<g opacity="0.95">
<path opacity="0.95" d="M171.029 298.795L187.543 308.334V212.843L171.029 203.304V298.795Z" fill="url(#paint21_linear_195_1378)"/>
<path opacity="0.95" d="M187.543 308.334L204.057 298.795V203.304L187.543 212.843V308.334Z" fill="url(#paint22_linear_195_1378)"/>
</g>
</g>
<path d="M204.057 203.304L187.625 212.152L171.029 203.304L187.039 213.206L187.543 308.334L188.327 213.089L204.057 203.304Z" fill="#BDFCFF"/>
</g>
<mask id="mask7_195_1378" style="mask-type:alpha" maskUnits="userSpaceOnUse" x="190" y="144" width="60" height="185">
<path d="M249.406 144.751H190.337V328.477H249.406V144.751Z" fill="url(#paint23_linear_195_1378)"/>
</mask>
<g mask="url(#mask7_195_1378)">
<g opacity="0.95">
<path opacity="0.95" d="M217.56 255.761L201.058 265.3L217.572 274.838L234.074 265.288L217.56 255.761Z" fill="#5FABDF"/>
<g opacity="0.95">
<path opacity="0.95" d="M201.047 315.907L217.561 325.446V274.827L201.047 265.288V315.907Z" fill="url(#paint24_linear_195_1378)"/>
<path opacity="0.95" d="M217.56 325.446L234.074 315.907V265.288L217.56 274.827V325.446Z" fill="url(#paint25_linear_195_1378)"/>
</g>
</g>
<path d="M234.074 265.288L217.642 274.148L201.046 265.288L217.057 275.19L217.56 325.446L218.344 275.073L234.074 265.288Z" fill="#BDFCFF"/>
</g>
<path d="M292.433 93.748C292.433 95.918 293.963 98.568 295.863 99.658C297.753 100.748 299.293 99.8781 299.293 97.7081C299.293 95.5381 297.763 92.888 295.863 91.798C293.963 90.708 292.433 91.578 292.433 93.748Z" fill="#50A3DB"/>
<path d="M190.245 62.0181C190.245 64.1881 191.775 66.8381 193.675 67.9281C195.565 69.0181 197.105 68.1481 197.105 65.9781C197.105 63.8081 195.575 61.1581 193.675 60.0681C191.775 58.9681 190.245 59.8481 190.245 62.0181Z" fill="#50A3DB"/>
<path d="M162.445 74.1421C162.445 76.3121 163.975 78.9621 165.875 80.0521C167.765 81.1421 169.305 80.2721 169.305 78.1021C169.305 75.9321 167.775 73.2821 165.875 72.1921C163.975 71.0921 162.445 71.9721 162.445 74.1421Z" fill="#50A3DB"/>
<path d="M258.992 55.8667C258.992 58.0367 260.522 60.6867 262.422 61.7767C264.312 62.8667 265.852 61.9967 265.852 59.8267C265.852 57.6567 264.322 55.0067 262.422 53.9167C260.522 52.8167 258.992 53.6967 258.992 55.8667Z" fill="#50A3DB"/>
<path d="M224.831 71.0376C224.831 73.2076 226.361 75.8576 228.261 76.9476C230.151 78.0376 231.691 77.1676 231.691 74.9976C231.691 72.8276 230.161 70.1776 228.261 69.0876C226.361 67.9876 224.831 68.8676 224.831 71.0376Z" fill="#50A3DB"/>
<path d="M326.312 153.729C326.312 155.899 327.842 158.549 329.742 159.639C331.632 160.729 333.172 159.859 333.172 157.689C333.172 155.519 331.642 152.869 329.742 151.779C327.842 150.689 326.312 151.559 326.312 153.729Z" fill="#50A3DB"/>
<path d="M359.913 183.188C359.913 185.358 361.443 188.008 363.343 189.098C365.233 190.188 366.773 189.318 366.773 187.148C366.773 184.978 365.243 182.328 363.343 181.238C361.443 180.138 359.913 181.018 359.913 183.188Z" fill="#50A3DB"/>
<path d="M394.343 232.688C394.343 234.858 395.873 237.508 397.773 238.598C399.663 239.688 401.203 238.818 401.203 236.648C401.203 234.478 399.673 231.828 397.773 230.738C395.883 229.648 394.343 230.518 394.343 232.688Z" fill="#50A3DB"/>
<path d="M425.206 278.467C425.206 280.637 426.736 283.287 428.636 284.377C430.526 285.467 432.066 284.597 432.066 282.427C432.066 280.257 430.536 277.607 428.636 276.517C426.746 275.427 425.206 276.297 425.206 278.467Z" fill="#50A3DB"/>
<path d="M428.54 337.078C428.98 337.078 429.34 336.718 429.34 336.278V333.098C429.34 332.658 428.98 332.298 428.54 332.298C428.1 332.298 427.74 332.658 427.74 333.098V336.278C427.75 336.718 428.1 337.078 428.54 337.078ZM428.54 329.108C428.98 329.108 429.34 328.748 429.34 328.308V325.128C429.34 324.688 428.98 324.328 428.54 324.328C428.1 324.328 427.74 324.688 427.74 325.128V328.308C427.75 328.758 428.1 329.108 428.54 329.108ZM428.54 321.148C428.98 321.148 429.34 320.788 429.34 320.348V317.168C429.34 316.728 428.98 316.368 428.54 316.368C428.1 316.368 427.74 316.728 427.74 317.168V320.348C427.75 320.798 428.1 321.148 428.54 321.148ZM428.54 313.188C428.98 313.188 429.34 312.828 429.34 312.388V309.208C429.34 308.768 428.98 308.408 428.54 308.408C428.1 308.408 427.74 308.768 427.74 309.208V312.388C427.75 312.838 428.1 313.188 428.54 313.188ZM428.54 305.228C428.98 305.228 429.34 304.868 429.34 304.428V301.248C429.34 300.808 428.98 300.448 428.54 300.448C428.1 300.448 427.74 300.808 427.74 301.248V304.428C427.75 304.868 428.1 305.228 428.54 305.228ZM428.54 297.268C428.98 297.268 429.34 296.908 429.34 296.468V293.288C429.34 292.848 428.98 292.488 428.54 292.488C428.1 292.488 427.74 292.848 427.74 293.288V296.468C427.75 296.908 428.1 297.268 428.54 297.268ZM428.54 289.308C428.98 289.308 429.34 288.948 429.34 288.508V285.328C429.34 284.888 428.98 284.528 428.54 284.528C428.1 284.528 427.74 284.888 427.74 285.328V288.508C427.75 288.948 428.1 289.308 428.54 289.308Z" fill="#A5E3FD"/>
<path d="M303.35 174.517L325.672 165.903L316.354 169.455L294.026 178.068L303.35 174.517Z" fill="#696969"/>
<path d="M332.2 225.965L354.53 217.346L356.846 204.978L334.524 213.591L332.2 225.965Z" fill="#50A3DB"/>
<path d="M303.034 141.308L325.362 132.695L314.433 125.317L292.111 133.931L303.034 141.308Z" fill="#50A3DB"/>
<path d="M332.206 190.629L354.528 182.015C344.936 175.544 338.838 161.53 340.875 150.674C341.886 145.303 344.703 141.724 348.467 140.276L326.145 148.889C322.388 150.338 319.564 153.917 318.552 159.293C316.516 170.144 322.622 184.152 332.206 190.629Z" fill="#50A3DB"/>
<path d="M345.59 193.118L367.912 184.505C364.103 185.973 359.337 185.259 354.535 182.016L332.207 190.63C337.015 193.873 341.775 194.586 345.59 193.118Z" fill="#50A3DB"/>
<path d="M365.992 226.645L388.313 218.031L382.237 204.081L359.909 212.694L365.992 226.645Z" fill="url(#paint26_linear_195_1378)"/>
<path d="M321.924 125.494L344.253 116.881L338.177 102.931L315.848 111.544L321.924 125.494Z" fill="#50A3DB"/>
<path d="M359.91 212.694L382.232 204.08C386.042 201.411 389.072 197.312 391.078 192.061L368.756 200.675C366.756 205.933 363.727 210.025 359.91 212.694Z" fill="#50A3DB"/>
<path d="M337.264 128.392L359.586 119.778C354.217 117.303 348.976 116.329 344.244 116.881L321.923 125.495C326.662 124.937 331.895 125.916 337.264 128.392Z" fill="url(#paint27_linear_195_1378)"/>
<path d="M371.252 187.355L393.574 178.741C393.772 172.269 392.787 165.506 390.714 158.865L368.365 167.33C370.445 173.965 371.45 180.883 371.252 187.355Z" fill="#50A3DB"/>
<path d="M361.951 152.589L384.227 143.891C380.743 137.789 376.341 132.231 371.355 127.715L349.034 136.329C354.019 140.845 358.37 146.343 361.854 152.445L361.951 152.589Z" fill="url(#paint28_linear_195_1378)"/>
<path d="M382.144 194.706L404.466 186.092L393.58 178.743L371.252 187.356L382.144 194.706Z" fill="url(#paint29_linear_195_1378)"/>
<path d="M379.647 208.025L401.969 199.412L404.467 186.093L382.145 194.706L379.647 208.025Z" fill="#50A3DB"/>
<path d="M349.023 136.327L371.351 127.714L373.668 115.376L351.338 123.995L349.023 136.327Z" fill="#50A3DB"/>
<path d="M351.34 123.996L373.67 115.376L361.91 107.441L339.581 116.054L351.34 123.996Z" fill="url(#paint30_linear_195_1378)"/>
<path d="M377.755 163.951L400.083 155.338L393.528 140.3L371.206 148.914L377.755 163.951Z" fill="url(#paint31_linear_195_1378)"/>
<path d="M289.61 147.249L300.534 154.62C300.299 161.07 301.313 167.898 303.35 174.51L294.025 178.061L300.482 192.661L309.831 189.167C313.322 195.232 317.77 201.169 322.763 205.649L320.439 218.023L330.311 226.513L332.199 225.958L334.523 213.585C339.885 216.097 345.095 217.012 349.821 216.496L355.841 230.263L365.983 226.637L359.907 212.687C363.718 210.018 366.746 205.925 368.754 200.668L377.758 208.573L379.646 208.019L382.144 194.7L371.252 187.349C371.449 180.877 370.438 173.958 368.371 167.325L375.843 164.583L377.747 163.944L371.13 148.753L369.31 149.461L361.889 152.263C358.405 146.161 354.007 140.843 349.015 136.326L351.331 123.994L339.57 116.059L337.682 116.613L337.253 128.396C331.884 125.92 327.369 124.667 322.636 125.225L315.835 111.555L305.779 115.385L311.824 129.314C308.044 132.004 304.991 136.04 303.022 141.318L292.098 133.947L290.21 134.502L289.61 147.249ZM332.204 190.629C322.619 184.158 316.514 170.144 318.551 159.287C320.581 148.467 329.981 144.917 339.565 151.394C349.119 157.844 355.225 171.852 353.194 182.678C351.158 193.529 341.758 197.079 332.204 190.629Z" fill="#BDFCFF"/>
<path d="M287.724 147.804L298.647 155.175C298.412 161.626 299.427 168.453 301.463 175.065L292.139 178.616L298.664 193.59L308.013 190.097C311.503 196.162 315.885 201.718 320.877 206.198L318.554 218.572L330.314 226.508L332.638 214.134C338 216.646 343.21 217.561 347.935 217.045L354.044 231.078L364.123 227.311L358.021 213.242C361.831 210.573 364.86 206.481 366.867 201.224L377.76 208.574L380.258 195.255L369.365 187.905C369.563 181.432 368.562 174.754 366.49 168.113L375.845 164.583L369.312 149.462L359.957 152.992C356.473 146.89 352.122 141.392 347.136 136.876L349.453 124.538L337.693 116.602L335.376 128.94C330.007 126.464 324.766 125.49 320.034 126.043L314.039 112.217L303.982 116.047L309.941 129.851C306.161 132.542 303.108 136.577 301.138 141.856L290.215 134.484L287.724 147.804ZM330.318 191.178C320.733 184.707 314.627 170.699 316.665 159.837C318.695 149.016 328.095 145.466 337.679 151.943C347.234 158.393 353.34 172.401 351.302 183.227C349.272 194.084 339.873 197.628 330.318 191.178Z" fill="#9FCFF3"/>
<defs>
<linearGradient id="paint0_linear_195_1378" x1="280.971" y1="257.301" x2="370.971" y2="124.301" gradientUnits="userSpaceOnUse">
<stop stop-color="#EBF7FF"/>
<stop offset="0.641863" stop-color="#D7EEFF"/>
<stop offset="1" stop-color="#CCEAFF"/>
</linearGradient>
<linearGradient id="paint1_linear_195_1378" x1="360.784" y1="23.7961" x2="255.198" y2="254.606" gradientUnits="userSpaceOnUse">
<stop stop-color="white"/>
<stop offset="1"/>
</linearGradient>
<linearGradient id="paint2_linear_195_1378" x1="220.584" y1="62.7034" x2="482.712" y2="206.652" gradientUnits="userSpaceOnUse">
<stop stop-color="#BCD5FF"/>
<stop offset="0.3125" stop-color="#A3BEFF"/>
<stop offset="1" stop-color="#9FB2FF"/>
</linearGradient>
<linearGradient id="paint3_linear_195_1378" x1="42.1804" y1="49.9835" x2="42.1804" y2="217.098" gradientUnits="userSpaceOnUse">
<stop offset="0.5606" stop-color="white"/>
<stop offset="0.6076" stop-color="#F5F4F5"/>
<stop offset="0.689" stop-color="#D8D8D9"/>
<stop offset="0.795" stop-color="#ABAAAB"/>
<stop offset="0.9202" stop-color="#6C6C6D"/>
<stop offset="1" stop-color="#414042"/>
</linearGradient>
<linearGradient id="paint4_linear_195_1378" x1="46.2871" y1="223.939" x2="-2.84863" y2="143.513" gradientUnits="userSpaceOnUse">
<stop stop-color="#BFD6FF"/>
<stop offset="1" stop-color="#328CCB"/>
</linearGradient>
<linearGradient id="paint5_linear_195_1378" x1="73.3539" y1="168.95" x2="24.0546" y2="174.102" gradientUnits="userSpaceOnUse">
<stop stop-color="#6ABAE0"/>
<stop offset="1" stop-color="#C9DFFF"/>
</linearGradient>
<linearGradient id="paint6_linear_195_1378" x1="71.9222" y1="67.0992" x2="71.9222" y2="234.214" gradientUnits="userSpaceOnUse">
<stop offset="0.5606" stop-color="white"/>
<stop offset="0.6076" stop-color="#F5F4F5"/>
<stop offset="0.689" stop-color="#D8D8D9"/>
<stop offset="0.795" stop-color="#ABAAAB"/>
<stop offset="0.9202" stop-color="#6C6C6D"/>
<stop offset="1" stop-color="#414042"/>
</linearGradient>
<linearGradient id="paint7_linear_195_1378" x1="76.0273" y1="241.049" x2="-4.58131" y2="151.191" gradientUnits="userSpaceOnUse">
<stop stop-color="#BFD6FF"/>
<stop offset="1" stop-color="#328CCB"/>
</linearGradient>
<linearGradient id="paint8_linear_195_1378" x1="103.094" y1="160.308" x2="53.5076" y2="163.837" gradientUnits="userSpaceOnUse">
<stop stop-color="#6ABAE0"/>
<stop offset="1" stop-color="#C9DFFF"/>
</linearGradient>
<linearGradient id="paint9_linear_195_1378" x1="98.6221" y1="44.506" x2="98.6221" y2="254.126" gradientUnits="userSpaceOnUse">
<stop offset="0.5606" stop-color="white"/>
<stop offset="0.6076" stop-color="#F5F4F5"/>
<stop offset="0.689" stop-color="#D8D8D9"/>
<stop offset="0.795" stop-color="#ABAAAB"/>
<stop offset="0.9202" stop-color="#6C6C6D"/>
<stop offset="1" stop-color="#414042"/>
</linearGradient>
<linearGradient id="paint10_linear_195_1378" x1="103.065" y1="55.7981" x2="36.5978" y2="-23.7139" gradientUnits="userSpaceOnUse">
<stop offset="0.00505051" stop-color="#146CB5"/>
<stop offset="0.202" stop-color="#146CB5"/>
<stop offset="0.4161" stop-color="#3E9DD8"/>
<stop offset="0.596" stop-color="#5EC2F2"/>
<stop offset="0.706" stop-color="#55CBF4"/>
<stop offset="0.8842" stop-color="#3DE3FA"/>
<stop offset="1" stop-color="#2AF6FF"/>
</linearGradient>
<linearGradient id="paint11_linear_195_1378" x1="90.7574" y1="15.5488" x2="90.7574" y2="351" gradientUnits="userSpaceOnUse">
<stop offset="0.00505051" stop-color="#146CB5"/>
<stop offset="0.202" stop-color="#146CB5"/>
<stop offset="0.4161" stop-color="#3E9DD8"/>
<stop offset="0.596" stop-color="#5EC2F2"/>
<stop offset="1" stop-color="#5EC2F2"/>
</linearGradient>
<linearGradient id="paint12_linear_195_1378" x1="110.973" y1="163.301" x2="77.8941" y2="153.251" gradientUnits="userSpaceOnUse">
<stop stop-color="#9FC1FF"/>
<stop offset="1" stop-color="#2372BA"/>
</linearGradient>
<linearGradient id="paint13_linear_195_1378" x1="121.939" y1="258.23" x2="7.52164" y2="171.093" gradientUnits="userSpaceOnUse">
<stop stop-color="#BFD6FF"/>
<stop offset="1" stop-color="#328CCB"/>
</linearGradient>
<linearGradient id="paint14_linear_195_1378" x1="130.286" y1="83.5049" x2="130.286" y2="266.658" gradientUnits="userSpaceOnUse">
<stop offset="0.5606" stop-color="white"/>
<stop offset="0.6076" stop-color="#F5F4F5"/>
<stop offset="0.689" stop-color="#D8D8D9"/>
<stop offset="0.795" stop-color="#ABAAAB"/>
<stop offset="0.9202" stop-color="#6C6C6D"/>
<stop offset="1" stop-color="#414042"/>
</linearGradient>
<linearGradient id="paint15_linear_195_1378" x1="134.393" y1="274.441" x2="32.5898" y2="184.775" gradientUnits="userSpaceOnUse">
<stop stop-color="#BFD6FF"/>
<stop offset="1" stop-color="#328CCB"/>
</linearGradient>
<linearGradient id="paint16_linear_195_1378" x1="161.459" y1="172.251" x2="111.779" y2="175.045" gradientUnits="userSpaceOnUse">
<stop stop-color="#6ABAE0"/>
<stop offset="1" stop-color="#C9DFFF"/>
</linearGradient>
<linearGradient id="paint17_linear_195_1378" x1="160.029" y1="117.607" x2="160.029" y2="284.722" gradientUnits="userSpaceOnUse">
<stop offset="0.5606" stop-color="white"/>
<stop offset="0.6076" stop-color="#F5F4F5"/>
<stop offset="0.689" stop-color="#D8D8D9"/>
<stop offset="0.795" stop-color="#ABAAAB"/>
<stop offset="0.9202" stop-color="#6C6C6D"/>
<stop offset="1" stop-color="#414042"/>
</linearGradient>
<linearGradient id="paint18_linear_195_1378" x1="164.133" y1="291.562" x2="92.1163" y2="203.06" gradientUnits="userSpaceOnUse">
<stop stop-color="#BFD6FF"/>
<stop offset="1" stop-color="#328CCB"/>
</linearGradient>
<linearGradient id="paint19_linear_195_1378" x1="191.2" y1="218.322" x2="141.667" y2="222.208" gradientUnits="userSpaceOnUse">
<stop stop-color="#6ABAE0"/>
<stop offset="1" stop-color="#C9DFFF"/>
</linearGradient>
<linearGradient id="paint20_linear_195_1378" x1="189.846" y1="134.378" x2="189.846" y2="301.493" gradientUnits="userSpaceOnUse">
<stop offset="0.5606" stop-color="white"/>
<stop offset="0.6076" stop-color="#F5F4F5"/>
<stop offset="0.689" stop-color="#D8D8D9"/>
<stop offset="0.795" stop-color="#ABAAAB"/>
<stop offset="0.9202" stop-color="#6C6C6D"/>
<stop offset="1" stop-color="#414042"/>
</linearGradient>
<linearGradient id="paint21_linear_195_1378" x1="193.955" y1="308.334" x2="138.482" y2="224.96" gradientUnits="userSpaceOnUse">
<stop stop-color="#BFD6FF"/>
<stop offset="1" stop-color="#328CCB"/>
</linearGradient>
<linearGradient id="paint22_linear_195_1378" x1="221.022" y1="248.447" x2="171.639" y2="253.185" gradientUnits="userSpaceOnUse">
<stop stop-color="#6ABAE0"/>
<stop offset="1" stop-color="#C9DFFF"/>
</linearGradient>
<linearGradient id="paint23_linear_195_1378" x1="219.869" y1="151.495" x2="219.869" y2="318.609" gradientUnits="userSpaceOnUse">
<stop offset="0.5606" stop-color="white"/>
<stop offset="0.6076" stop-color="#F5F4F5"/>
<stop offset="0.689" stop-color="#D8D8D9"/>
<stop offset="0.795" stop-color="#ABAAAB"/>
<stop offset="0.9202" stop-color="#6C6C6D"/>
<stop offset="1" stop-color="#414042"/>
</linearGradient>
<linearGradient id="paint24_linear_195_1378" x1="223.973" y1="325.446" x2="201.047" y2="265.288" gradientUnits="userSpaceOnUse">
<stop stop-color="#BFD6FF"/>
<stop offset="1" stop-color="#328CCB"/>
</linearGradient>
<linearGradient id="paint25_linear_195_1378" x1="251.039" y1="291.144" x2="202.562" y2="299.266" gradientUnits="userSpaceOnUse">
<stop stop-color="#6ABAE0"/>
<stop offset="1" stop-color="#C9DFFF"/>
</linearGradient>
<linearGradient id="paint26_linear_195_1378" x1="376.297" y1="203.512" x2="374.009" y2="227.412" gradientUnits="userSpaceOnUse">
<stop stop-color="#338ECC"/>
<stop offset="1" stop-color="#C2D8FF"/>
</linearGradient>
<linearGradient id="paint27_linear_195_1378" x1="341.951" y1="116.149" x2="340.747" y2="128.725" gradientUnits="userSpaceOnUse">
<stop stop-color="#338ECC"/>
<stop offset="1" stop-color="#C2D8FF"/>
</linearGradient>
<linearGradient id="paint28_linear_195_1378" x1="368.959" y1="127.485" x2="366.514" y2="153.025" gradientUnits="userSpaceOnUse">
<stop stop-color="#338ECC"/>
<stop offset="1" stop-color="#C2D8FF"/>
</linearGradient>
<linearGradient id="paint29_linear_195_1378" x1="389.405" y1="178.343" x2="387.786" y2="195.246" gradientUnits="userSpaceOnUse">
<stop stop-color="#338ECC"/>
<stop offset="1" stop-color="#C2D8FF"/>
</linearGradient>
<linearGradient id="paint30_linear_195_1378" x1="358.217" y1="107.087" x2="356.55" y2="124.494" gradientUnits="userSpaceOnUse">
<stop stop-color="#338ECC"/>
<stop offset="1" stop-color="#C2D8FF"/>
</linearGradient>
<linearGradient id="paint31_linear_195_1378" x1="387.925" y1="139.763" x2="385.538" y2="164.696" gradientUnits="userSpaceOnUse">
<stop stop-color="#338ECC"/>
<stop offset="1" stop-color="#C2D8FF"/>
</linearGradient>
</defs>
</svg>
